<?xml version="1.0" standalone="no"?>
<!DOCTYPE svg PUBLIC "-//W3C//DTD SVG 1.1//EN" "http://www.w3.org/Graphics/SVG/1.1/DTD/svg11.dtd" >
<svg xmlns="http://www.w3.org/2000/svg" xmlns:xlink="http://www.w3.org/1999/xlink" version="1.1">
<metadata>
Created by FontForge 20170731 at Wed Oct 21 10:11:10 2020
 By Aleksey,,,
2019 Fontsgood Type Foundry
</metadata>
<defs>
<font id="WestburySignatureDemoVersion-" horiz-adv-x="512" >
  <font-face 
    font-family="Westbury Signature Demo Version"
    font-weight="400"
    font-stretch="normal"
    units-per-em="2048"
    panose-1="0 0 0 0 0 0 0 0 0 0"
    ascent="1638"
    descent="-410"
    x-height="408"
    cap-height="1069"
    bbox="-761.333 -600 1796 2562"
    underline-thickness="102"
    underline-position="-358"
    unicode-range="U+000D-221A"
  />
<missing-glyph 
 />
    <glyph glyph-name=".notdef" 
 />
    <glyph glyph-name="uni0000" horiz-adv-x="0" 
 />
    <glyph glyph-name="uni0000" horiz-adv-x="0" 
 />
    <glyph glyph-name="uni000D" unicode="&#xd;" 
 />
    <glyph glyph-name="space" unicode=" " horiz-adv-x="468" 
 />
    <glyph glyph-name="ampersand" unicode="&#x26;" horiz-adv-x="874" 
d="M784 645q10 10 25 10q11 0 16 -8q9 -6 6 -16q0 -13 -16 -23q-35 -28 -63 -45q-18 -12 -68 -45t-76 -53q-87 -67 -155 -127q-13 -9 -37 -29t-37 -30q-3 -6 0 -9q2 -8 10 -24q22 -39 25 -43q23 -33 59 -33q19 0 27 4q41 12 61 45q13 19 25 19q8 0 12 -2q14 -5 18 -23
q3 -20 -12 -31q-68 -49 -137 -51q-58 3 -98 66q-17 24 -25 45q0 2 -4 2l-12 -11q-36 -38 -138 -131q-6 -6 -67 -59q-4 -3 -29 -23q-3 -6 -12 -6h-4h-10h-15q-9 4 -12 15t2 20q9 19 14 25q55 132 248 368q13 15 17 47v5q27 254 225 458q46 40 71 60q3 3 9.5 7t9.5 7
q7 6 33 16q6 2 18 2q19 0 31 -12q17 -17 8 -43q-25 -112 -205 -336l-12 -14q-23 -29 -70 -89t-71 -89q-7 -11 -7 -17q0 -60 3 -116v-6v-5l4 2l65 50q39 31 118 92.5t118 91.5q7 6 114 92zM371 526l8 13q13 17 43 51l6 8q131 171 190 268q38 66 50 92l10 21q2 4 2 12
q-2 0 -6 -1t-6 -1q-9 -9 -23 -16q-105 -77 -176 -188.5t-94 -239.5q-1 -3 -2 -10t-2 -9zM326 289q-3 44 -9 96v8l-38 -53q-57 -76 -121 -170q-20 -30 -35 -57q-2 -4 -2 -9q94 82 203 179q2 0 2 6z" />
    <glyph glyph-name="quotesingle" unicode="'" horiz-adv-x="196" 
d="M59 895l2 2q13 20 2 31q-4 4 -4 24q16 50 52 76q8 4 14 6h2h6q14 0 19 -8q4 -4 4 -18q-3 -13 -17 -45q-7 -13 -21.5 -37t-21.5 -37q-3 -5 -9 -14.5t-9 -14.5q-3 -10 -15 -14h-4q-6 0 -8 4q-6 2 -10 10q0 11 8 19q0 2 2.5 5.5t3.5 4.5q0 1 2 3t2 3z" />
    <glyph glyph-name="plus" unicode="+" horiz-adv-x="763" 
d="M694 680q30 -6 27 -33q-3 -20 -35 -20q-16 4 -27 4q-4 1 -11 2t-13 2l-12 2q-14 1 -30.5 2t-37 2t-31.5 2q-43 4 -125 8q-7 0 -10.5 -0.5t-7.5 -1.5t-6.5 -4.5t-5.5 -9.5q-19 -36 -56 -107.5t-55 -107.5l-45 -84q0 -1 -1 -3t-1 -3q-1 -3 -2.5 -5.5t-3 -5.5t-2.5 -4
q-8 -14 -23 -14q-8 0 -12 4q-18 9 -12 35q8 12 14 18l2 4q5 5 8 11q2 2 7 7.5t6 8.5q42 84 120 244l4 8q5 5 5 14h-15q-98 -4 -149 -4l-45 -4h-15h-22q-24 0 -29 8q-9 9 -6 17q2 20 33 20h90h39h33h90q12 0 17 3t11 14q67 132 82 159l10 21q10 17 17 24q11 11 20 11
q5 0 13 -4q16 -13 10 -33q0 -4 -6 -13l-92 -167q0 -3 -2 -7l-3 -4q3 -2 9 -2h24q26 0 88 -4q2 0 125 -6h27q6 0 18 -4z" />
    <glyph glyph-name="comma" unicode="," horiz-adv-x="196" 
d="M49 -98q10 10 19 22q2 2 2 6q0 2 -4 4q-14 9 -11 29q8 30 29.5 63t46.5 33q6 0 8 -2q17 -9 17 -34v-3q0 -4 -2 -6q-27 -53 -60 -100q-14 -21 -24 -31q-5 -10 -15 -10q-9 0 -14 14q0 2 1.5 4.5t3.5 6t3 4.5z" />
    <glyph glyph-name="hyphen" unicode="-" horiz-adv-x="651" 
d="M174 621q143 0 287 -3q14 0 28 -2t31 -5.5t27 -4.5q25 -6 43 -20q11 -7 18 -27q4 -25 -18 -31q-2 0 -4.5 -1t-3.5 -1q-15 0 -23 19q-3 14 -11.5 19.5t-27.5 8.5l-4 2q-56 9 -78 9h-108h-203q-13 0 -49 -9h-12q-13 0 -21 11q-5 4 -5 12t5 12q8 8 14 11l7 4l6 4l2 -8h100z
" />
    <glyph glyph-name="period" unicode="." horiz-adv-x="147" 
d="M51 -43q-2 2 -4 7.5t-2 6.5t-1 4.5t-1 4.5h-2v2q4 8 4 10q9 37 33 37q4 0 12 -4q25 -14 12 -37q-5 -10 -22 -27q-12 -8 -17 -8q-4 0 -12 4z" />
    <glyph glyph-name="slash" unicode="/" horiz-adv-x="1181" 
d="M956 870q-325 -311 -698 -718q-33 -34 -94 -100.5t-76 -82.5q-2 -2 -7 -5t-7 -5l-2 -2h-2q-17 0 -25 12q-11 11 0 23q5 11 16 18q108 99 289 291q414 445 690 721q31 27 35 29q14 9 35 12q8 0 20 -8q9 -9 9 -23t-11 -22q-4 -4 -12 -4q-27 0 -41 -19h-2z" />
    <glyph glyph-name="zero" unicode="0" horiz-adv-x="778" 
d="M41 100q6 177 136 410.5t276 382.5q94 106 190 125q6 2 19 2q54 0 69 -57q11 -39 -6 -107q-21 -104 -84 -221q-26 -47 -70 -121q-5 -9 -16 -26.5t-16 -26.5v-2q-5 -3 -9 -7.5t-7 -7.5t-6 -9t-5 -8.5t-5 -10t-3.5 -9.5t-4 -10.5t-3.5 -9.5q-92 -225 -230 -379
q-37 -37 -86 -49q-10 -4 -28 -4q-55 0 -83 43.5t-28 101.5zM567 573q4 6 12.5 19.5t12.5 19.5q80 148 102 250q11 56 2 88q-9 31 -32 31q-9 0 -13 -2q-88 -16 -202 -139q-131 -145 -237.5 -347.5t-119.5 -373.5q0 -115 58 -115q1 0 4.5 1t5.5 1q24 2 53 17q171 127 297 512
l2 2q33 101 33 151q0 27 26 27q12 0 19.5 -8.5t5.5 -20.5q0 -9 -4 -29q-14 -37 -17 -51q-2 -6 -6 -19.5t-6 -19.5z" />
    <glyph glyph-name="one" unicode="1" horiz-adv-x="677" 
d="M61 -88q-23 8 -20 39q0 8 2 14q1 4 4 15t4 18q70 228 189 438q67 116 155 264q11 19 34 57t34 58l2 2q3 5 9 15.5t9 15.5q7 7 -2 16q-12 9 -12 23q0 12 12 24q2 2 72 66l14 12l8 8q9 9 11 13q11 8 24 8q14 0 19 -8q6 -4 7.5 -13t-7.5 -24q0 -1 -1 -2t-1 -2l-2 -2
q-154 -209 -295 -444t-209 -427q-10 -23 -4 -49q14 -54 -27 -125q-3 -12 -18 -12q-7 0 -11 2z" />
    <glyph glyph-name="two" unicode="2" horiz-adv-x="856" 
d="M43 -25q74 90 152 136q15 7 28 24l23 27q333 417 403 504q62 79 99 157q11 29 22 76q3 30 -8 41q-8 11 -41 14q-70 0 -144.5 -39.5t-130.5 -97.5q-17 -14 -32 -41q-17 -24 -2 -39q16 -12 0 -32q-9 -9 -19 -9q-6 0 -14 4q-20 13 -23 37q-3 37 21 68q46 69 117 118t151 68
q31 10 78 10q22 0 55 -14q32 -17 35 -63q2 -37 -18 -88q-31 -73 -107 -177q-148 -204 -389 -489l-4 -6q-8 -8 -10 -12q4 0 8 2q2 2 6 2q145 51 279 51q40 0 83 -10.5t81 -38t44 -66.5q0 -16 -6 -31q-7 -20 -24 -20q-2 0 -4.5 1t-3.5 1q-23 3 -37 31q-13 23 -2 41q7 9 -4 14
q-60 41 -173 41q-151 -9 -282 -70q-14 -5 -33 -28q-41 -41 -67 -76q-7 -7 -19.5 -20.5t-19.5 -20.5q-9 -13 -19 -18q-13 -13 -24 -13q-3 0 -15 4q-9 6 -12 21.5t2 25.5z" />
    <glyph glyph-name="three" unicode="3" horiz-adv-x="851" 
d="M106 2q-36 10 -52.5 37.5t-10.5 66.5q12 54 48 99t87 74q4 4 10 4q12 6 23 6t18 -10q8 -15 -10 -33l-4 -6q-3 -2 -8 -9t-6 -8l-2 -6q-13 -18 -27 -18q-4 0 -12 4q-18 -9 -40 -39.5t-28 -52.5q-9 -31 0 -50q22 -34 111 -34q45 0 88 12q263 68 422 299q52 73 49 160
q0 55 -38 99.5t-89 67.5t-105 29h-8q-4 1 -10.5 2t-9.5 2q-17 11 -17 21q-2 9 11 22q2 2 5.5 5t4.5 4q4 0 8 2t20.5 10t24.5 14q62 30 137 72q20 10 47 33l7 4l4 6q-2 0 -6 2q-40 8 -68 8q-68 0 -141.5 -26t-124.5 -68q-14 -14 -25 -14q-8 0 -14 6q-10 7 -10 18q0 15 8 23
q14 19 35 30q132 78 272 78q32 0 63 -8l11 -2q16 -4 31.5 -15t15.5 -24q0 -16 -15 -31q-7 -5 -20.5 -15t-20.5 -15q-96 -54 -120 -68l-41 -25q-6 0 -6 -2q-10 -5 -11 -6q4 -4 11 -4l6 -2q103 -27 168 -92q69 -66 57 -176q-9 -100 -90 -193q-101 -116 -242.5 -197t-281.5 -87
q-5 1 -14.5 2t-14.5 2q-32 4 -60 12z" />
    <glyph glyph-name="four" unicode="4" horiz-adv-x="851" 
d="M76 279q-27 0 -33 18q-4 9 -2 20t10 17q16 14 37 24q9 9 18 15q10 5 13 8q23 13 31 22q266 276 446 537q22 25 51 66l2 2q8 12 8 14q0 3 -10 10q-6 6 -8 15q0 6 8 22q22 25 58 31h8q13 0 18 -8q13 -13 6 -29q-10 -24 -24 -43l-13 -16q-173 -213 -381 -455
q-18 -22 -54.5 -65t-55.5 -64l-2 -2q-1 0 -2.5 -3.5t-3.5 -4.5q4 2 10 2q0 4 6 4l43 12q17 4 146 41q20 4 24 14q6 10 35 62t45 78q4 8 26 47t33 61q11 11 17 35q11 18 24 18q3 0 11 -4q11 -3 14 -12q6 -12 0 -27q-2 -4 -10 -16l-50 -82q-10 -17 -27.5 -47t-32 -55
t-28.5 -47q0 -5 -2 -7h2q12 1 50 11q21 3 57 10t53 10q14 4 43.5 11.5t44.5 11.5q30 5 39 8h4q2 2 10 2q9 0 15 -6t6 -15q3 -9 -4 -16q-2 -4 -14 -8h-21q-19 0 -27 -2q-97 -11 -268 -49q-14 -6 -22 -19q-246 -423 -246 -489q0 -22 -21 -37q-4 -4 -14 -4q-6 0 -8 2
q-12 8 -12 22q4 22 12 37l18 39q123 243 172 336q21 38 41 76l2 2q4 8 4 12q-3 0 -9 -1t-9 -1q-123 -44 -133 -47l-80 -29q-40 -12 -55 -53q-8 -22 -39 -22z" />
    <glyph glyph-name="five" unicode="5" horiz-adv-x="1069" 
d="M682 459q0 -108 -76 -225.5t-193 -196t-227 -78.5q-61 0 -106 35q-42 31 -39 88q7 57 53 82q18 6 23 6q10 0 16 -6q15 -10 8 -39q-22 -70 -24 -74q-6 -15 -4.5 -19.5t16.5 -13.5q35 -18 72 -18q127 0 252 107.5t176 234.5q23 66 20 119q-3 40 -26 63.5t-64 26.5
q-55 0 -119 -23q-95 -44 -159 -102q-1 0 -3 -1t-4 -1q-9 -9 -12 -10q-1 0 -4.5 -1t-5.5 -1q-8 0 -12 4q-9 7 -9 22q0 6 9 15q0 2 2 4l96 159q24 38 70 113t69 113q4 7 12.5 21.5t12.5 21.5l2 6h-6l-29 -8q-22 -3 -65 -12.5t-56 -12.5q-3 -1 -16 -14q-10 -10 -29 -10
q-19 4 -24 18q-10 17 6 25q2 1 22 8q7 1 22.5 4t22.5 4q48 12 152 33q27 6 35 24l2 4q10 45 34 45q9 0 13 -2q21 -14 12 -36q0 -5 -6 -11q-4 -6 -2 -10q8 0 12 2q2 0 5 1t5 1q180 24 363 66q2 0 6 2t12 2q12 0 21.5 -6t9.5 -17q3 -21 -20 -30q-2 0 -7 -1.5t-8 -1.5h-6
l-100 -14q-47 -6 -146 -19.5t-151 -19.5q-27 -7 -39 -26q-14 -22 -40 -65t-40 -64q-9 -14 -30 -47t-31 -50q-6 -10 -25.5 -41t-28.5 -49l-18 -31q6 2 14 7t10 6q7 5 21.5 12t19.5 10q67 33 142 33q57 0 95 -31t44 -88v-18v-4z" />
    <glyph glyph-name="six" unicode="6" horiz-adv-x="913" 
d="M164 252q15 10 20 22q192 371 547 615q42 30 68 43q11 7 37 16q27 0 34 -18q3 -15 -4 -33q-2 -7 -16 -12q-10 -3 -19 6q-4 2 -10 2q-5 0 -14 -6q-2 0 -6 -4q-181 -122 -316.5 -259t-240.5 -313q-3 -3 -8 -18q12 4 16 6q147 77 272 90q50 0 72 -31q21 -29 8 -75
q-15 -37 -39 -72q-66 -81 -151.5 -151.5t-163.5 -90.5q-12 -2 -35 -2q-73 0 -86 80q-2 8 -2 23l-2 6v2q2 51 22 108l3 4q1 3 2 8.5t2 8.5q-8 -3 -19 -10q-46 -22 -57 -54q-3 -10 -10 -14h-17q-5 3 -10 14q-2 5 6 17l6 6q16 23 39 39l39 26q15 12 33 21zM162 104
q-6 -26 2 -53q6 -28 24 -43q16 -4 23 -4t27 4q31 9 73 31q132 81 224 211q13 16 18 31q16 36 6 51q-10 16 -49 16q-6 -2 -14 -2q-63 -12 -175.5 -52t-121.5 -69q-25 -70 -37 -121z" />
    <glyph glyph-name="seven" unicode="7" horiz-adv-x="847" 
d="M360 772q-19 0 -32 19q-12 17 4 36q9 9 18 15q190 121 412 202v3q3 1 7.5 2t6.5 2q19 0 27 -11q8 -15 0 -28q-4 -11 -15 -17q-175 -172 -396 -503t-306 -549q-2 -2 -6.5 -7t-7.5 -8v-2h-2q-18 0 -25 11q-8 12 -2 20q8 16 10 18q2 3 8 15q279 524 584 905q13 17 43 51
q5 5 13 14t12 13l2 4h-4l-43 -21q-152 -75 -166 -82q-16 -6 -68 -38q-5 -3 -15.5 -9.5t-15.5 -9.5q-13 -7 -16 -20q0 -11 -7.5 -18t-19.5 -7z" />
    <glyph glyph-name="eight" unicode="8" horiz-adv-x="759" 
d="M41 -8q-3 45 10 96q19 66 60.5 137t75 113.5t96.5 116.5q12 15 8 24q-15 43 10 111q43 87 94 151q45 58 134 141.5t139 100.5q4 2 14 2q14 0 23 -6q15 -11 12 -33q-7 -45 -58 -96q-298 -324 -464 -561q-92 -129 -111 -250q-4 -24 2 -45q7 -24 23 -27q8 -4 14 -4
q10 0 22 6q3 2 8.5 6.5t8.5 6.5q112 98 151 243q1 6 3 17.5t3 17.5q0 8 3 14q-3 66 -41 91q0 1 -2.5 2.5t-2.5 3.5q-6 6 -6 14q0 6 9 12q2 2 6 2q26 0 48.5 -48.5t22.5 -78.5q0 -94 -58.5 -201.5t-135.5 -146.5q-16 -8 -39 -8q-32 0 -54.5 21.5t-27.5 54.5zM319 526h3v-4v-4
v-4q2 -2 2 -6q1 1 3 2t3 2l4 4q0 1 1 2t1 2l67 76q155 178 158 182q27 30 86 105q6 6 19 32l4 7v8h-8q-25 -15 -39 -23q-106 -75 -178 -162t-121 -202q0 -7 -5 -17z" />
    <glyph glyph-name="nine" unicode="9" horiz-adv-x="917" 
d="M653 600q23 5 84 121t82 170q16 34 23 76q6 27 -8 41q-10 10 -27 10q-8 0 -14 -2q-69 -16 -148 -67.5t-137.5 -125.5t-58.5 -141q0 -57 49 -78q29 -16 80 -20q3 1 10 2t10 2q9 2 27.5 6t27.5 6zM129 -18q29 10 43 18q60 48 86 70q150 147 307 379q9 14 26.5 39.5
t26.5 39.5l5 9l2 4q-2 2 -4 2q-28 -4 -43 -4q-44 0 -82 14q-46 15 -71 49t-24 78q4 74 68 157.5t149 141t154 70.5h2q20 4 29 4q33 0 57 -21q27 -30 12 -84q-16 -63 -38 -108q-25 -48 -70 -127q-18 -28 -29 -51q-4 -4 -4 -7q-1 -2 -3 -5t-3 -5q0 -2 -2 -4q4 0 6 2h10
q18 0 25 -14q11 -21 -10 -35q-5 -3 -27.5 -15.5t-34.5 -17.5q-28 -13 -41 -33q-59 -92 -125.5 -186t-158.5 -203t-160 -159q-53 -30 -68 -35q-8 -4 -26 -4q-45 0 -66 53q-5 15 -5.5 29.5t4 30t8.5 24.5t12 26q3 6 12 9q1 0 3 1t3 1q2 0 10 -4q17 -8 10 -29q-1 -2 -3 -5
t-3 -5l-4 -2q-21 -27 -6 -64q6 -26 31 -26q1 0 4.5 1t5.5 1z" />
    <glyph glyph-name="colon" unicode=":" horiz-adv-x="245" 
d="M188 453q9 -9 13 -21q2 0 -1.5 -17t-13.5 -38t-24 -29q-9 -6 -19 -6q-8 0 -12 2q-14 8 -14 29q2 27 17.5 55.5t39.5 28.5q6 0 14 -4zM82 276q3 3 10 3t14 -7q13 -9 9 -20q-3 -21 -23 -70q-7 -20 -24 -20q-5 2 -7 2q-13 2 -18 29l-2 6q5 14 6 16q3 18 10 39q5 10 25 22z
" />
    <glyph glyph-name="semicolon" unicode=";" horiz-adv-x="276" 
d="M178 379q-2 2 -6.5 7.5t-7.5 8.5q0 7 -4 11v4q0 2 2 6t2 6q2 4 6 13.5t6 13.5q10 10 29 10q10 0 14 -2q9 -6 13.5 -18.5t0.5 -22.5q-5 -13 -18 -29q-12 -12 -22 -12q-11 0 -15 4zM139 285h4q15 0 21 -6q9 -14 4 -29q-6 -17 -10 -23q-5 -10 -23 -37q-18 -30 -20 -34
t-7.5 -13.5t-7.5 -13.5q-3 -5 -9 -15.5t-9 -15.5q-2 -4 -12 -14v-2h-4q-14 0 -21 10q-6 6 -2 17q3 12 12 18q1 2 11 12q2 2 12 17l2 2q15 19 2 32q-7 13 0 23q15 35 29 55q6 13 28 17z" />
    <glyph glyph-name="less" unicode="&#x3c;" horiz-adv-x="634" 
d="M117 315q-2 -2 -4.5 -3.5t-3.5 -2.5h8h4l403 10h39h4q25 0 27 -18q0 -20 -29 -20h-225v2l-47 -2q-156 -10 -191 -11q-2 0 -7 -1t-7 -1q-8 0 -20 4q-17 4 -23 17q-11 16 10 30q13 13 25 19q121 72 336 156q9 5 26 8q13 0 21 -4q5 -5 8 -17q0 -4 -10 -24q-4 -3 -17 -8h-4
q-128 -34 -323 -134z" />
    <glyph glyph-name="equal" unicode="=" horiz-adv-x="862" 
d="M168 602q8 4 25 4q163 -12 325 -12h17q36 -1 106.5 -3t106.5 -3q21 0 36 -6q19 -3 19 -29q-3 -25 -23 -29h-6q-17 0 -22 8q-8 10 -31 13l-86 4q-173 6 -342 12q-2 0 -103 6q-28 0 -28 23zM799 387h-4l-310 8v2h-75h-203q-51 0 -98 -6q-21 0 -29 -2q-39 0 -39 25
q0 11 6 20q6 6 27 10h55h182q116 -4 168 -8q123 -6 242 -6h59q21 0 29 -4q5 -2 9 -9t3 -11t-12 -15l-4 -2q-2 -2 -6 -2z" />
    <glyph glyph-name="greater" unicode="&#x3e;" horiz-adv-x="626" 
d="M537 360q-73 -27 -76 -28q-16 -5 -309 -96l-60 -19q-12 -6 -26 -6q-15 0 -23 12q-3 4 -1.5 13t5.5 12q12 9 33 20l2 2q6 4 16 4q14 0 27 -8q6 0 20 2q314 105 334 111q25 11 39 20l6 2q6 6 8 7q-6 6 -10 6q-19 5 -24 8q-176 37 -363 37q-5 0 -17 -1t-18 -1q-24 0 -32 4
q-13 0 -21 12q-4 4 -4 19q6 22 31 22q304 0 473 -61q5 -1 26 -17q23 -23 2 -47q-11 -11 -38 -29z" />
    <glyph glyph-name="question" unicode="?" horiz-adv-x="761" 
d="M98 59q3 -3 13 -18v-4q0 -35 -21 -64q-12 -12 -20 -12q-5 0 -13 4q-19 13 -16 27q0 23 13 46t34 23q6 0 10 -2zM156 129q-17 0 -17 23q-1 1 4 10q21 35 37 59q14 24 43 73.5t43 74.5q17 33 51 39q68 15 134 81q88 88 153 207t74 230q0 26 -12 35q-9 6 -25 6h-12
q-102 -28 -177 -115.5t-110 -198.5q-4 -10 -4 -35v-2q0 -28 22 -36q29 -6 23 -31q-7 -21 -37 -21q-32 6 -45 37q-21 38 -12 82q19 59 37 94q46 92 136.5 181.5t174.5 89.5q21 0 31 -4q50 -12 53 -86q-1 -4 -2 -12.5t-2 -12.5q-3 -25 -12 -49q-22 -64 -57.5 -133
t-82.5 -140.5t-107.5 -126.5t-121.5 -75q-21 -6 -33 -27q-14 -21 -46 -73.5t-50 -79.5l-29 -46l-2 -4q-4 -8 -10 -10q-4 -4 -10 -4z" />
    <glyph glyph-name="at" unicode="@" horiz-adv-x="856" 
d="M784 516q-18 -79 -77 -185t-138.5 -205t-179.5 -168t-188 -69q-15 0 -23 2q-93 13 -123 101q-14 33 -14 110q0 92 45 222q122 359 432 622q68 47 92 60q36 16 82 24q3 0 9.5 1t9.5 1q69 0 94 -76q17 -57 2 -129q-76 -283 -262 -483q-17 -17 -19 -20q-23 -17 -32 -17
q-7 0 -11 2q-20 8 -20 43q0 5 1 16.5t1 16.5v14l2 9v22q0 1 -1 3t-1 3q-6 0 -6 -4q-114 -99 -213 -127l-10 -4q-6 -4 -25 -4q-25 0 -33 14q-10 17 -2 37q4 17 14 27q60 86 150 135q38 15 70 20q3 0 8.5 1t7.5 1q76 0 82 -81v-41q-2 -6 -2 -17q0 -6 -2 -8v-14h4l4 4v2
q97 108 177.5 259t80.5 271v11q0 2 -6 38q-15 37 -51 37q-45 -3 -68 -12q-46 -21 -82 -49q-308 -244 -436 -586q-54 -143 -51 -256q0 -63 31.5 -110.5t91.5 -47.5q14 0 22 2q67 12 137.5 58t129 109.5t111.5 139.5t90 148.5t59 134.5l2 4q3 12 7.5 16.5t16.5 4.5
q10 -3 10 -8q4 -6 0 -21v-4zM225 344h4q10 7 23 10q109 50 172 115q2 4 10 12q0 4 -2 4h-22q-59 -13 -101 -48.5t-84 -88.5v-4z" />
    <glyph glyph-name="A" unicode="A" horiz-adv-x="1335" 
d="M18 -492q-16 6 -16 33q0 9 8 49q8 15 19 21q1 0 4 1t4 1q6 0 14 -4q2 -2 6 -2q8 0 13 8q20 21 55.5 62t40.5 47q192 217 452 522q2 3 58 67q27 31 45 54q1 1 3 4q10 12 -3 12q-12 -1 -37.5 -2t-38.5 -2q-152 0 -418 -35q-22 -3 -51 -10q-10 -2 -15 -3.5t-4.5 -5.5t1.5 -5
t8 -9q12 -15 2 -30q-7 -11 -25 -11q-6 0 -8 2q-29 12 -41 27q-20 20 -14 39q7 38 127 55q237 19 541 29q23 0 34 16q68 80 206.5 240t207.5 240q6 7 18.5 22.5t18.5 22.5q40 46 41 47q3 3 7.5 8.5t6.5 7.5q3 3 9.5 9t9.5 9q7 9 2.5 19.5t-15.5 13.5q-21 6 -43 6
q-149 0 -321 -105.5t-277 -236.5q-69 -81 -82 -155q-8 -27 7 -47q4 -5 11.5 -9.5t17.5 -8.5t14 -7q4 0 4 -2q11 -3 18 -10q10 -16 -2 -29.5t-29 -13.5h-4q-30 4 -54.5 26.5t-33.5 53.5q-9 34 4 82q23 84 97 170q220 249 520 331l18 6q37 9 78 9q43 0 70.5 -10.5t52.5 -41.5
q16 -17 12 -30q-3 -15 -14.5 -40.5t-14.5 -37.5q-28 -77 -104 -225q-22 -44 -79.5 -154t-86.5 -170l-2 -4q-3 -7 2 -9q2 0 6 -1q33 -2 101.5 -5.5t99.5 -5.5q5 0 18 -0.5t21.5 -1t18 -2.5t15.5 -6.5t7 -11.5q1 -11 -11.5 -15t-31.5 -4h-27q-18 1 -97 7t-122 6q-24 0 -37 -21
q-58 -120 -167 -337.5t-146 -292.5q-15 -30 -39 -74l-12 -29l-6 -6l-5 -8q-6 -17 -16 -19q-1 0 -3 -1t-3 -1q-2 0 -10 4q-13 9 -13 15q-6 11 4 24l7 11q20 35 26 47q6 14 29 55q114 228 151 305q78 154 154 299q2 4 6 12.5t6 12.5q2 8 -4 8h-6q-31 0 -91 2t-89 2
q-14 2 -37 -21l-61 -71q-114 -140 -549 -653l-66 -78q-27 -31 -41 -43q-11 -11 -26 -11q-7 0 -9 2zM831 424q32 -3 166 -8q15 0 21 4t14 18q109 206 219 436q1 3 7 15.5t8 19.5q7 10 10 23q2 5 -3 6l-3 -2q-14 -14 -15 -16q-20 -25 -22 -27q-11 -14 -45 -53
q-274 -311 -291 -330q-12 -12 -33 -36.5t-24 -27.5q-2 -2 -5.5 -6t-5.5 -6q-7 -10 2 -10z" />
    <glyph glyph-name="B" unicode="B" horiz-adv-x="1980" 
d="M547 -453q117 0 254 26t279 79t265 124.5t217 173t130 214.5q53 182 -80 305q-178 165 -471 227q-26 3 -49 9q-19 0 -29 -15q-14 -32 -27 -55q-2 -3 -5 -10.5t-5 -10.5l-41 -82q-9 -18 -37 -75t-45 -88q0 -7 -4 -11q-1 -2 -3 -5.5t-3 -5t0 -1.5q4 -2 20 -2q9 0 30 1t30 1
q4 0 20.5 2t26.5 2q41 0 43 -22q0 -25 -29 -27h-6q-7 0 -24.5 1t-18.5 1h-88q-15 0 -22.5 -4.5t-14.5 -17.5q-15 -30 -44.5 -90.5t-43.5 -90.5q-20 -42 -60 -125t-59 -125q-6 -14 -18.5 -39.5t-18.5 -39.5q-9 -18 -14.5 -21.5t-23.5 -3.5q-27 7 -21 41q2 24 22.5 64t41.5 40
q10 0 14.5 5t9.5 18l156 319q4 12 10 21q2 7 18 39v6q-24 0 -38 -4q-79 -10 -166.5 -32.5t-181.5 -61t-172.5 -87t-139 -116.5t-82.5 -143q-17 -68 4.5 -124t79.5 -93q85 -51 183 -69t231 -22zM991 635l29 63q8 13 0 19q-11 11 -4 24q3 10 18 13q3 0 5.5 1t4.5 2.5t3 2t3 3
t2.5 3.5l2 4t2.5 4l2 4q5 10 25 55.5t20 49.5q10 20 26 20q9 0 11 -2q10 -3 14 -14q6 -10 -4 -27q-8 -19 -23 -45q-10 -20 -22 -41q0 -1 -1 -4.5t-1 -5.5q8 0 10 2q313 56 565 141q11 2 52 23l6 4q20 11 -82 31q-156 28 -303 28q-191 0 -384 -45.5t-347 -134.5l-19 -10
q-1 0 -5.5 -3.5t-5.5 -4t-5 -3.5t-5.5 -4.5t-5 -4.5t-4.5 -4.5t-3.5 -5t-3.5 -6t-2 -6t-1 -7.5q0 -16 -10 -19q-8 -4 -23 -4q-14 3 -20 14q-4 6 -4 21q10 30 24 41q54 61 162.5 109t231.5 74t236 39t202 13q436 -14 436 -102q0 -28 -42 -50t-81 -32q-66 -17 -193 -48
t-139 -34l-90 -20q-15 -4 -37 -8q-4 -1 -12 -2.5t-12 -2.5l18 -6q14 0 29 -6q298 -95 414 -223q148 -139 96 -340q-28 -105 -104 -199.5t-180 -164.5t-228 -126.5t-252 -92t-247 -54t-218 -18.5q-240 0 -393 84q-80 46 -109.5 119.5t-1.5 160.5q26 91 111 170
q123 123 320.5 201t388.5 92q18 3 26 18q61 129 131 277z" />
    <glyph glyph-name="C" unicode="C" horiz-adv-x="997" 
d="M891 1118q20 4 33 4q46 0 84.5 -24t44.5 -68q5 -48 -4 -76q-47 -108 -140 -186l-4 -2q-12 -12 -26 -12q-10 0 -21 8q-14 8 -16 27.5t6 33.5q10 17 22 17q5 0 17 -4q2 -2 8 -2q18 0 27 14q29 38 41 55t27 53t14 68q-5 53 -68 53q-32 0 -74 -14q-132 -45 -261 -144
t-234 -233.5t-182 -287.5t-112.5 -320t-19.5 -318q23 -158 119 -170q111 0 203 58t192 162q71 65 129 145q28 33 31 39q10 13 21 16q9 0 22 -10q9 -9 12 -18q0 -15 -10 -25q-181 -202 -280 -289q-151 -125 -285 -125q-15 0 -43 4q-79 17 -109 76q-10 17 -22.5 47t-14.5 41
q-22 104 -15.5 222t48 245.5t101 250.5t144.5 237.5t178 206t201.5 156.5t215.5 89z" />
    <glyph glyph-name="D" unicode="D" horiz-adv-x="1722" 
d="M514 702q-20 10 -27 35q-6 23 9 45q25 38 80.5 73.5t95 52t102.5 40.5q272 110 557 125q7 0 22 1t21 1q123 0 199 -22q27 -6 53 -19q129 -57 111 -203q-11 -107 -97 -239q-93 -147 -237 -293.5t-310.5 -267.5t-354 -203t-353.5 -98q-14 -2 -23 -17q-14 -36 -20 -49
q-8 -16 -10 -24q-1 -1 -2 -4.5t-2 -4.5q0 -2 -4 -10v-2q-11 -17 -15 -18h-6q-6 0 -10 2q-5 3 -7.5 14t-0.5 18q3 8 26 66l4 8q1 3 2.5 7t3 6.5t1.5 3.5q-2 2 -17 2q-174 0 -252 63q-44 29 -47 72q-3 41 27 78q74 82 207.5 130.5t259.5 55.5q16 0 24 14q89 167 213 406
l97 184q15 22 4 37q-7 11 10 35q30 39 61 39q13 -3 17 -11q4 -6 4 -22q-9 -18 -10 -21l-5 -4l-110 -206q-35 -63 -205 -375q-11 -17 -18 -37q-3 -5 -8.5 -15.5t-8.5 -15.5l-2 -6q2 -2 8 -2q18 -1 53.5 -4t51.5 -4l39 -4h4q10 0 14 -2q19 -19 17 -25q0 -7 -8 -13.5t-15 -6.5
q-2 -2 -8 -2q-8 0 -12 2q-9 0 -11 2q-10 1 -29.5 2t-29.5 2q-56 4 -82 8q-16 0 -27 -19q-14 -28 -29 -60.5t-33.5 -73t-29.5 -62.5l-35 -72q0 -4 -2 -4q-1 -2 -2 -5t-2 -5l-2 -6h8q11 4 32.5 7.5t25.5 4.5q314 59 633 291q82 60 172.5 142.5t181.5 183t158.5 211t85.5 202.5
q12 72 -15 116.5t-96 67.5q-76 25 -178 25q-413 -9 -778 -205q-13 -8 -70 -49q-10 -13 -10 -16q0 -7 8 -11q10 -10 10 -18q0 -11 -8.5 -21t-20.5 -10q-9 0 -18 6zM317 -229q2 0 5.5 -1t5.5 -1q16 0 30 28q16 35 45.5 98.5t36.5 79.5q7 13 21.5 41t21.5 41q4 12 4 19
q-4 2 -16 2q-111 -12 -228.5 -58t-176.5 -118q-27 -35 6 -68q87 -63 229 -63h6h10z" />
    <glyph glyph-name="E" unicode="E" horiz-adv-x="1112" 
d="M45 956q-28 4 -37 19q-9 12 -6 20q4 14 12 17q16 8 39 12h8q209 10 627 18h6q19 0 31 15q17 22 29 18q14 0 24 -24q2 -9 13 -9h2h65h49h150q119 -2 356 -2q13 0 19 2h16q35 0 39 -24q3 -9 -4 -19q-11 -14 -33 -14h-150h-137l-139 4q-84 0 -256 4q-20 0 -27 -12
q-25 -40 -72.5 -121t-72.5 -121q-18 -31 -55 -92.5t-56 -91.5q-8 -14 -24.5 -43t-24.5 -43l-6 -14q-1 -1 -3 -5.5t-3 -5.5q4 -2 12 -2q22 0 68 -1t69 -1h136q94 -4 135 -4q13 0 19.5 -0.5t14 -6t7.5 -17.5q0 -7 -2 -12t-6.5 -8t-7.5 -4t-10 -2.5t-9 -2.5h-6q-14 -2 -45 -2
q-57 0 -109 14q-8 2 -24 2h-107h-143q-17 0 -25 -14q-161 -318 -223 -518q-20 -66 -29 -146q-3 -44 17 -68.5t67 -31.5q28 -4 45 -4q71 0 175 40.5t194.5 103.5t120.5 120l2 4q9 18 9.5 26.5t-13.5 20.5q-4 8 -4 11q0 12 4 14q6 6 22 6q34 -15 31 -47q-10 -49 -23 -68
q-61 -103 -232.5 -189.5t-293.5 -86.5q-79 0 -123.5 31t-44.5 110q-2 56 29 164q53 176 196 469q15 26 23 45l4 6h-4h-39q-49 0 -74 -8q-2 -2 -12 -2q-11 0 -19 7t-8 18q-2 7 5 18q10 10 24 10q43 2 131 2q21 0 29 19q90 177 291 497q9 15 12 27q0 2 4 6h-6q-20 4 -29 4
q-90 -2 -269 -7t-269 -7q-29 0 -39 -12q-11 -11 -27 -11z" />
    <glyph glyph-name="F" unicode="F" horiz-adv-x="1142" 
d="M2 365q-3 12 4 21.5t21 12.5q106 29 176 43q2 0 5.5 1t4.5 1q10 0 16 -6q10 -6 13 -20q0 -6 10 -6l51 4q61 2 182 10q9 0 17 16q106 199 112 211q44 88 134 260l51 101l4 4q0 1 1 3t1 3l4 8q-4 2 -10 2q-33 -2 -97 -2l-141 -4q-41 -2 -87 -3t-101.5 -1.5t-85.5 -1.5h-4
h-15h-8q-5 2 -10.5 8t-5.5 12q0 7 5.5 13t10.5 8q8 2 25 2h4h196h56v2l73 4q126 4 193 4q26 0 29 21l6 12l2 2q10 20 26 20q5 0 13 -4q14 -6 14 -16q5 -10 -2 -25q-4 -4 -4 -8h6h4h105q136 0 206 -2q225 -8 336 -31l6 -2q25 -3 43 -12q24 -16 27 -37q3 -27 -29 -37
q-53 -16 -98 -16q-5 0 -16.5 1t-16.5 1q-15 2 -23 11t-7 22q2 24 39 24h26q-10 5 -22 5l-45 4q-269 26 -439 26q-63 0 -96 2q-19 0 -28.5 -6.5t-18.5 -23.5q-102 -199 -203 -388q-13 -23 -35 -65.5t-30 -58.5l-9 -17q-3 -6 -10 -19.5t-10 -19.5q-4 -4 -4 -10h10h66
q51 2 153 2q18 2 51 2q34 0 50 -2h39q1 1 2.5 1t1.5 1q12 0 16 -2q16 -11 16 -20q0 -12 -14 -21q-6 -2 -20 -2h-5h-73q-24 0 -75 -1t-75 -1q-14 -1 -41.5 -2t-40.5 -2h-69q-21 -3 -29 -19q-134 -279 -219 -448l-82 -170q-8 -14 -8 -47q-2 -33 -26.5 -83t-51.5 -50
q-6 0 -14 4q-11 8 -11 31q3 9 9 18q1 1 2 3q1 3 2 3q124 299 333 709l13 26q2 4 5 11t3 8q-15 0 -21 -2q-43 -4 -137 -12.5t-145 -12.5l-113 -8q-2 0 -6 -1t-6 -1q-29 0 -37 25z" />
    <glyph glyph-name="G" unicode="G" horiz-adv-x="1226" 
d="M1157 743q-18 -4 -33 -26q-22 -25 -18 -37q18 20 45 55zM2 -276q9 121 55 258q197 572 678 923q105 75 227 127.5t228 52.5q29 0 41 -2q59 -6 84 -45q25 -36 10 -92q-32 -120 -172 -297q-4 -4 -4 -8q-18 -23 -33 -23q-6 0 -12 3q-18 8 -29.5 30.5t-7.5 40.5
q10 38 42.5 68t72.5 45q21 5 30 24q5 14 19 39q27 56 35 78q16 45 4 60q-12 21 -58 24q-245 0 -489 -186q-478 -359 -651 -924q-20 -64 -31 -160v-4q-12 -62 12 -121q24 -62 92 -71q52 0 82.5 4.5t69.5 21.5q302 126 481 385q56 80 68 166q8 51 -19 90q-30 33 -82 39
q-88 0 -178 -20h-4q-16 -4 -22 -4q-23 0 -33 18q-4 9 8 27q14 14 27 14q126 22 149 25q51 6 108.5 14t121 16.5t92.5 12.5q47 4 145 16l53 6h5q1 0 5.5 1t6.5 1q19 0 22 -14q0 -26 -34 -33h-11q-189 -22 -407 -45q-4 0 -8 -2h4q1 0 3 -1t3 -1q100 -43 88 -151
q-11 -101 -91 -215t-189 -203.5t-232.5 -149t-218.5 -59.5q-53 3 -89.5 30t-48.5 74q-4 11 -14 66q0 8 -4 28v3z" />
    <glyph glyph-name="H" unicode="H" horiz-adv-x="1644" 
d="M631 358q-49 -2 -148.5 -6t-148.5 -6q-77 -5 -207 -16q-36 -4 -57 -4q-16 -4 -23 -11l-8 -4q-8 -4 -14 -4q-9 0 -13 4q-15 15 -12 29q9 22 25 25q18 6 51 6h4q190 12 582 32h8h24q26 0 38 6.5t22 28.5q7 16 21.5 46t21.5 46q117 253 149 355q21 65 29 125q3 26 -8 34
q-8 11 -37 11q-135 -19 -283 -148t-174 -256q-8 -26 2 -43q13 -17 43 -22q3 -1 8.5 -2t8.5 -2q4 -1 11 -2t11 -2q12 -3 18 -13t3 -22q0 -12 -11 -19q-8 -4 -12 -4q-2 0 -5 1t-5 1l-15 4q-56 18 -75 27q-43 22 -37 78q0 73 55 158.5t133.5 153t168.5 114.5t157 51
q55 0 74 -27q26 -26 20 -80q-18 -105 -58.5 -205.5t-107.5 -232.5l-8 -20l-16.5 -33t-20.5 -43l-22 -45q-5 -12 -1 -15.5t17 -3.5h18q36 0 106.5 1.5t106.5 1.5q70 0 140 -3q18 0 28 19q18 37 68 139t76 158q90 180 133 270q2 3 5 11.5t5 11.5q3 17 10 30q15 24 37 43
q10 7 21 7q1 0 16 -5q18 -7 18 -32q0 -50 -38 -97q-10 -10 -17 -8h-4q-11 0 -22 -18q0 -8 -5 -8q-28 -57 -76 -151t-86.5 -171.5t-72.5 -152.5q-19 -38 -9 -42q2 -1 5 -1q24 0 71 1t70 1h113h22q15 0 24.5 -1.5t16 -7t2.5 -16.5q-13 -31 -94 -31h-20h-68q-25 0 -78 1t-78 1
q-26 0 -36 -22q-113 -230 -273 -551l-67 -133q-3 -5 -7.5 -15.5t-7.5 -15.5q-21 -40 -33 -68q-4 -4 -4 -12q-4 -8 -4 -14v-2q-10 -20 -16 -23q-2 -4 -10 -4q-9 0 -11 2q-8 3 -8 6q-8 17 -2 33q1 3 90 191q44 90 131 270t131 270q10 24 23 43q11 18 16 31q1 3 3.5 7.5
t2.5 6.5h-14l-27 2q-74 4 -221 4q-84 0 -127 2q-20 0 -28 -18q-46 -92 -137.5 -277.5t-137.5 -277.5l-67 -137q0 -2 -2 -4q-6 -21 -35 -21q-13 3 -13 27q2 6 7 16l4 4l229 461q17 35 53 105.5t54 105.5q1 1 3 7t3 7h-15z" />
    <glyph glyph-name="I" unicode="I" horiz-adv-x="878" 
d="M895 397q3 -1 4.5 -8.5t-1.5 -17t-9 -15.5q-201 -152 -353.5 -283.5t-279.5 -277.5q-7 -6 -19.5 -24.5t-15.5 -22.5q-19 -27 -37 -63q-45 -83 -53 -99q0 -1 -37 -71q-11 -22 -24 -37q-16 -23 -37 -23q-9 0 -17 4q-23 14 -10 54q44 99 129 208q40 50 84 140
q15 32 78.5 165t97.5 203q31 66 88.5 185.5t71.5 148.5l8 15q27 57 148 313q17 39 32 96q7 20 0 23q-4 4 -14 4h-8q-102 -18 -221.5 -100t-212.5 -196.5t-119 -217.5q-9 -34 2.5 -54t46.5 -30q14 0 27.5 -10.5t13.5 -24.5q2 -7 -4 -16q-9 -9 -27 -9q-44 -1 -80 34t-38 79
q0 65 41.5 144.5t109 153t147.5 138t162.5 108t147.5 54.5q2 0 7 1t7 1q31 0 51 -20q20 -23 11 -66q-15 -62 -43 -121q-17 -36 -51.5 -105.5t-51.5 -103.5l-82 -164q-181 -376 -205 -423q-10 -21 -29.5 -66t-29.5 -66q-13 -22 -22 -47q0 -6 4 -2l6 6q230 230 571 494
q4 2 10.5 6t10.5 6t8 2q1 0 3 -1t3 -1z" />
    <glyph glyph-name="J" unicode="J" horiz-adv-x="1134" 
d="M1118 819q-46 -169 -121.5 -333.5t-193.5 -381.5q-8 -10 2 -20q9 -9 4 -23q-8 -10 -25 -10h-6q-7 0 -12 -10q0 -4 -4 -4q-132 -215 -268 -348q-74 -72 -167.5 -126.5t-176.5 -54.5q-91 0 -125 58q-33 51 -15 108q14 56 62 115q108 137 278 230.5t338 97.5q4 -2 10 -2
q19 0 43 -6q2 0 6 -1.5t5 -1.5q10 0 20 17q91 159 182.5 363t120.5 343q12 59 15 117q2 11 -7 45q-9 37 -47 37q-45 0 -75 -12q-289 -110 -449 -336q-26 -37 -37 -80q-11 -35 2 -65q17 -27 58 -39q2 0 4 -2q7 0 12 -5q16 -16 14 -24t-8 -16t-12 -9q-4 -2 -10 -2q-9 0 -21 4
q-14 5 -27 12.5t-30 21.5t-26.5 31.5t-15.5 43.5t3 57q25 87 118.5 184t200.5 165.5t195 97.5q49 17 92 20q99 0 111 -92q8 -61 -17 -164zM733 57l4 11h-6q-19 0 -29 2h-36q-122 0 -253.5 -66.5t-228.5 -161.5q-80 -74 -114 -153q-27 -58 -4 -95q12 -17 32.5 -25.5t34 -9.5
t41.5 -1q5 2 18 4t19 4q254 62 522 491z" />
    <glyph glyph-name="K" unicode="K" horiz-adv-x="1327" 
d="M426 217q-18 -9 -18 -16q0 -2 20 -15q39 -19 121 -65q23 -12 70 -38t69 -38q135 -75 260 -84q17 0 25 -2h16q13 0 25 4q45 7 71 14q57 15 78 46q12 12 21 12q8 0 14 -6q16 -15 -4 -35q-67 -80 -227 -80q-117 0 -252 63q-22 10 -125 68q-28 16 -60 32.5t-71 36.5t-60 31
l-14 7q-5 0 -12 -17q-7 -13 -88 -166q-27 -51 -83 -154.5t-83 -154.5q-21 -40 -41 -63q-17 -22 -39 -27h-10q-7 0 -15 4q-12 8 -12 20q-4 19 6 29q6 6 19 6q4 0 7 0.5t5.5 1.5t5 3t4 3t3.5 4t3 4t3 4.5t3 4.5l2 4q8 16 24 43t22 39q7 16 22.5 44.5t18.5 33.5q15 25 51.5 92
t58.5 102l59 111q8 13 15 31q-10 -8 -32 -22.5t-28 -18.5q-17 -12 -51.5 -35.5t-52.5 -34.5q-16 -11 -57 -27q-4 -2 -13 -2q-11 0 -20 6q-15 12 -12 33q0 7 8 27q31 66 88.5 104.5t126.5 38.5q17 0 45 -4q8 -2 18 -2q18 0 29 23q170 311 328 626q8 17 16 38.5t12.5 35.5
t13 43.5t11.5 38.5q7 27 -2 39q-8 8 -31 8h-10q-33 -3 -57 -12q-124 -46 -242 -134.5t-170 -193.5q-11 -26 -14 -51q-3 -23 4 -33q7 -7 32 -10q35 0 37 -27q0 -30 -37 -30q-89 9 -92 86q-2 31 19 86q35 74 106.5 144.5t148.5 119.5t160 84q56 22 127 22q39 -3 58 -28
q20 -23 14 -60q-1 -12 -18 -78q-34 -103 -148 -309q-53 -99 -137 -252l-61 -112q8 4 12 8l176 131q83 63 250 189.5t250 189.5q193 144 331 250q27 21 54 45q16 16 24 22q25 25 41 25q14 0 25 -15q11 -22 -10 -39q-47 -33 -74 -55q-23 -16 -68 -50.5t-67 -51.5
q-120 -90 -342 -252.5t-303 -222.5l-121 -88q-45 -35 -135 -101zM289 170q-101 -3 -154 -94q19 12 71 42.5t83 49.5v2z" />
    <glyph glyph-name="L" unicode="L" horiz-adv-x="847" 
d="M324 -106q180 0 273.5 -7t233.5 -37q9 -2 54 -22l2 -2q26 -13 16 -41q-9 -21 -29 -33q-2 -2 -10 -2q-5 0 -15.5 4t-12.5 4q-9 9 -9 17q-2 9 7 22l4 6q-1 0 -4.5 1t-4.5 1l-2 2q-139 27 -226.5 38.5t-201.5 11.5h-49h-135q-18 0 -27 -15q-10 -15 -24 -38t-24.5 -40
t-20.5 -32q-45 -64 -74 -64q-2 0 -4.5 1t-3.5 1q-21 7 -27 29q-8 16 -8 45q3 15 11 60t14 73q3 6 11.5 11.5t14.5 5.5q5 0 17 1t18 1q9 0 49 -5q20 0 28 5.5t17 23.5q240 428 449 871q50 94 76 172q8 16 10 24q4 9 8 31q9 36 0 45q-4 4 -14 4q-5 0 -25 -4
q-159 -41 -308 -152t-231 -249q-18 -30 -8 -72l2 -2q3 -10 4.5 -14t7 -9.5t13.5 -7.5q12 0 16 -12q5 -11 -2 -25q-6 -13 -16 -16q-31 0 -51 33q-41 78 -4 151q79 137 217 244.5t297 167.5q47 14 94 14q36 0 47 -16q17 -20 14 -49q-3 -45 -18 -74q-202 -487 -533 -1069
q-4 -8 -8 -12h17h88zM51 -272l4 2q36 50 82 118q0 5 -2 5h-6h-4q-6 -3 -12 -3q-13 0 -29 -4q-10 0 -10 -6q-18 -66 -23 -108v-4z" />
    <glyph glyph-name="M" unicode="M" horiz-adv-x="1329" 
d="M1141 571q-160 -174 -281 -313q-41 -43 -82 -94q-21 -21 -45 -39q-21 -12 -33 -12q-6 0 -14 4q-19 8 -24 43q-3 13 0 22q0 120 48 320.5t101 347.5q-4 -3 -11.5 -9.5t-11.5 -9.5q-217 -193 -380 -450q-25 -45 -31 -62q-112 -266 -195 -446q-14 -32 -55 -104
q-3 -5 -10.5 -16.5t-10.5 -16.5q-5 -12 -22 -29l-2 -4q0 -1 -1.5 -2.5t-2.5 -3.5q-18 -23 -35 -23q-2 0 -7 1t-7 1q-31 13 -25 60q9 44 23 76q60 146 225 411q39 50 94 150q22 35 43 90l31 76q23 55 54.5 136.5t70.5 184.5t53 139q20 51 41 144q9 48 -8 65q-14 9 -25 9
q-12 0 -41 -11q-67 -25 -144 -96.5t-139.5 -158.5t-109.5 -178.5t-61 -158.5q-4 -35 -2 -49q0 -50 51 -53h4h8q27 -4 27 -29q-4 -21 -29 -24q-38 0 -72.5 26.5t-38.5 63.5q-3 32 4 76q21 103 100.5 240t189.5 250.5t202 139.5q29 11 47 11q39 0 64 -25q28 -28 22 -80
q-8 -71 -39 -151q-11 -29 -61.5 -166t-71.5 -187q-7 -17 -21.5 -52t-21.5 -52q0 -1 -1 -2t-1 -2q35 39 57 67q152 188 273 291q31 31 53 31q14 0 20 -4q4 -3 9 -31q0 -8 -4 -16q-5 -5 -5 -6q-93 -231 -159 -586q-6 -43 -6 -86l-2 -16q0 -1 1 -8t1 -11q12 6 18 12
q64 69 76 84q37 39 88 101q31 36 143 166q43 45 107 106l20 21q18 18 35 18q7 0 16 -6q23 -15 7 -41l-5 -10l-18 -60q-32 -101 -47 -159q-110 -387 -49 -625q12 -52 49 -86q2 -1 5.5 -4.5t4.5 -3.5q0 2 2 10q6 18 27 18q15 0 35 -16l2 -2q25 -25 16 -47q-9 -16 -29 -19
q-3 0 -9 -1t-9 -1q-51 0 -87 45t-50 101q-21 82 -22.5 177t17.5 206.5t35 182.5t46 187l10 43v4zM238 106q-138 -220 -185 -362q1 1 6 10q3 3 8.5 9.5t9.5 12t7 9.5q69 116 154 321z" />
    <glyph glyph-name="N" unicode="N" horiz-adv-x="1155" 
d="M973 457q-67 -192 -84 -301q-16 -89 -2 -146q16 -54 43 -71q10 -5 12 -5v13q-2 4 2 6l6 6q8 12 17 14q51 0 65 -26q10 -17 -8 -35q-25 -25 -63 -25t-68 27t-41 66q-23 77 -6 180q26 147 131 432l2 8q30 74 72 207v29v8h-9l-30 -6q-64 -26 -170 -119
q-169 -145 -347.5 -363t-273.5 -405q-19 -39 -112 -209q-18 -26 -39 -66l-4 -8q-17 -28 -31 -28q-4 0 -12 4q-28 10 -17 49l4 8q12 60 54 136.5t75 123t90 119.5q64 85 119 186l6 13q209 388 287 565q80 163 80 229v10h-10q-34 -6 -35 -6q-65 -21 -152 -92
q-198 -163 -291 -358q-29 -60 -26 -117q3 -66 67 -78q27 -5 29 -22q0 -20 -10 -27q-4 -2 -17 -2q-12 0 -18 2q-120 54 -92 178q40 150 148 280.5t255 233.5q73 50 127 58q8 2 21 2q31 0 45 -17q17 -22 6 -59q-43 -138 -84 -225q-137 -281 -242 -476q0 -4 -2 -4
q42 51 61.5 74.5t74.5 87.5t91.5 102t93.5 94t100.5 89t92.5 61t88 35h13q22 0 32 -12q18 -15 15 -45q-2 -22 -17 -68q-3 -10 -47 -133q-34 -86 -65 -182z" />
    <glyph glyph-name="O" unicode="O" horiz-adv-x="1130" 
d="M1155 393q5 -10 2 -20q-6 -15 -24 -21q-18 -9 -50.5 -24t-44.5 -21q-205 -98 -262 -123q-27 -12 -41 -34q-106 -177 -252 -345q-123 -141 -286 -204q-4 -2 -12.5 -5.5t-12.5 -5.5q-15 -6 -41 -6q-93 0 -111 90q-5 28 -10 90q-1 4 -2 12t-2 11q6 189 62 340q12 37 12 70
q0 132 96 307t207 301q46 53 96.5 100t112.5 93.5t130.5 74t131.5 27.5q60 0 99 -34.5t48 -94.5q10 -74 -10 -162q-61 -291 -200 -567q8 0 10 4q52 25 155.5 73.5t155.5 73.5q6 0 6 4q18 6 21 6q9 0 16 -10zM137 139q47 -47 123 -47t202 34.5t228 72.5q26 9 39 34
q83 157 150 349t75 340v8q0 19 -2 31q-5 44 -31 69t-69 25q-17 0 -25 -2q-109 -20 -222 -99.5t-202 -187.5t-157 -225.5t-101 -221.5q-2 -8 -6 -20q74 122 144 215q23 35 67 70q9 6 17 14q11 9 36 14q13 0 21 -4q10 -10 10 -20q0 -29 -24 -29q-27 -2 -52 -31
q-141 -150 -225 -358q-9 -18 4 -31zM594 23q66 82 78 120q-31 -9 -43 -14q-8 -2 -36 -12t-44 -13q-169 -51 -273 -55q-54 0 -89.5 8.5t-69.5 36.5l-8 6q-3 -2 -5 -10q-47 -155 -49 -252q0 -74 13 -160q5 -44 63 -47l6 2q5 1 15.5 3.5t15.5 3.5q50 14 102.5 46.5t93 68t88 89
t75.5 89.5t67 90z" />
    <glyph glyph-name="P" unicode="P" horiz-adv-x="1138" 
d="M252 -51q-15 -4 -23 -23q-47 -94 -133 -270l-35 -76q-2 -2 -4 -6q0 -8 -12 -16.5t-20 -8.5q-7 0 -7 5q-16 3 -16 28q-2 7 6 19q0 2 2 4q71 139 119 237l35 68q6 12 6 16q-2 2 -25 2q-16 0 -24 4q-31 6 -41 33q-7 28 12 47q21 27 47 43q25 15 113 60q18 8 29 24
q84 161 194 363q84 151 152 282q7 12 63 121l17 31q2 2 2 6h-4q-55 -19 -119 -47.5t-137.5 -68.5t-131 -90t-77.5 -97q-12 -26 -8.5 -37.5t26.5 -26.5q18 -9 18 -24q4 -11 -4 -19q-10 -10 -20 -10q-11 0 -23 6q-28 17 -40 45t-5 60q17 62 80.5 123.5t148.5 109t162 80.5
t144 53q23 5 37 33q-12 -4 -17 -4q-4 0 -8 4.5t-4 9.5q0 7 8 19l2 2q5 6 14.5 18.5t14.5 18.5l18 24l4 4q11 17 25 17q6 0 10 -2t7 -5t4.5 -5.5t2 -6.5t0.5 -6.5t-1 -6.5l-1.5 -6t-2 -6t-1.5 -5q-3 -6 -8 -18.5t-8 -18.5q-8 -15 -10 -27q-2 0 -2 -6q4 0 6 2q148 37 276 37
q105 0 164 -29q51 -22 69 -62t-1 -87q-22 -57 -58.5 -114.5t-88.5 -117t-88.5 -97.5t-96.5 -97q-370 -360 -733 -512zM156 -27q47 0 61 39q3 14 8 23q6 12 6 14l-12 -8q-13 -8 -37.5 -23.5t-36.5 -23.5q-5 -5 -8 -14zM340 147h12q136 35 221 35q13 0 35 15q69 49 142.5 108
t155.5 134.5t151.5 150.5t129 158.5t89.5 156.5q0 9 4 21q-2 4 -2 14q-3 16 -10 23q-32 29 -54 34q-51 19 -131 19h-39q-115 -6 -253 -47q-20 -6 -31 -25q-87 -165 -105 -199q-20 -33 -82 -151q-35 -66 -105.5 -199.5t-105.5 -199.5l-18 -37q-4 -4 -4 -11zM311 82l-12 -12
q-21 -42 -29 -60v-4q112 45 244 127h-4l-2 4l-37 -12q-31 -7 -90 -23.5t-70 -19.5z" />
    <glyph glyph-name="Q" unicode="Q" horiz-adv-x="1138" 
d="M1036 870v-28q-8 -136 -63 -307t-137 -331.5t-190.5 -300.5t-215.5 -212q-18 -13 -10 -31q3 -8 9 -24.5t9 -24.5q25 -79 66 -139q11 -13 33 -23q14 -4 16 -2q5 5 8 16q4 25 21 25q6 0 8 -2q7 -3 11.5 -13t4.5 -18q0 -27 -22 -43q-15 -12 -37 -12q-2 0 -6 1t-6 1
q-48 9 -70 51q-33 59 -59 119q-3 8 -8.5 23.5t-8.5 23.5q-4 12 -4 19l-8 18q-5 0 -17 -4l-6 -2q-40 -13 -55 -15q-64 0 -104 26t-66 85q-52 119 -16 268q1 3 3 10.5t3 10.5q11 24 -4 51q-42 74 -33 184q9 101 53 218.5t115.5 228.5t159 202.5t194 147t209.5 55.5
q92 0 148 -48t69 -140q1 -10 3 -32t3 -32zM317 385q21 -5 21 -35q0 -17 -1 -47t-1 -45l-4 -37q9 -224 67 -477q0 -2 1 -8.5t1 -7.5q21 21 39 30q79 70 103 97q179 199 302.5 464.5t141.5 518.5q3 78 -16 131q-30 91 -129 100q-10 2 -33 2q-109 0 -225 -76
q-167 -107 -290 -300t-157 -392q-18 -116 10 -174q0 -2 5 -2q45 108 133 238v2q8 11 13.5 14.5t18.5 3.5zM164 20q-40 -153 14 -266q37 -67 107 -73q12 4 18 4q39 11 41 12q14 4 16 8t0 21q-46 197 -59 362q-4 70 -8 111q0 13 -2 37t-2 36q0 1 -1 3.5t-1 3.5q-4 -4 -4 -5
q-15 -27 -44 -83.5t-44 -84.5q-5 -15 -5 -18l-2 -4q14 0 28.5 -8.5t14.5 -20.5q0 -10 -9.5 -19t-20.5 -9q-9 0 -21 4h-8q-3 0 -4.5 -1.5t-2.5 -5t-1 -4.5z" />
    <glyph glyph-name="R" unicode="R" horiz-adv-x="1183" 
d="M1044 614q-266 -275 -671 -553q-7 -3 -15 -10q2 0 8 -1t9 -1h18h10q86 0 203 -31q32 -8 91 -23.5t81 -21.5q122 -33 158 -43t82 -10q39 0 72 8h2q24 4 32 21q3 10 17 10q12 0 16 -8q7 -11 4 -21q-5 -32 -50 -45.5t-89 -13.5q-28 0 -55 6q-72 14 -152 37q-4 1 -90 23
q-187 45 -254 57q-41 8 -90 8q-56 0 -111 -10q-8 0 -24 -8q-4 -4 -8 -4q-8 -4 -15 -11l-24 -12q-58 -18 -78 -80q-6 -15 -19.5 -46.5t-19.5 -47.5q-3 -7 -10.5 -23.5t-10.5 -23.5q-12 -29 -28 -29q-9 0 -13 2q-7 2 -16 15q-3 13 6 34l27 62q6 14 18.5 39.5t18.5 38.5
q2 4 2 8h-8h-5q-6 0 -8 -2q-33 0 -35 20q-2 8 4 19t13 14q27 22 67 39q23 9 35 33l11 22q51 104 154 314t153 313q42 82 78 145q6 12 18 34t18 34l2 4q1 3 3.5 8t3.5 8q-58 -19 -115.5 -44.5t-124 -62t-115.5 -85t-65 -98.5q-9 -42 33 -54q21 -7 34 -20q3 -11 0 -21
q-6 -11 -14 -14q-4 -2 -14 -2q-17 0 -25 4q-43 17 -60 51t-3 74q16 44 52.5 87t83.5 77t92.5 59.5t92.5 44.5q26 10 73.5 27t61.5 22l25 9q26 7 33 24q3 8 10 19q3 10 10 20q1 3 2 10t2 11v8v4q0 6 2 10q21 34 62 82q4 4 10 4q10 0 18 -4q6 -3 9.5 -12t1.5 -15
q-2 -8 -13 -30q-8 -12 -26 -49q-10 -14 -27 -48q-10 -10 -2 -10q2 0 6.5 1t5.5 1q23 3 85.5 11t106 12t81.5 4q74 0 139 -25t86 -82q22 -60 -18 -135q-45 -79 -132 -162zM1130 788q38 65 19 107q-13 32 -60.5 52t-90 25t-83.5 5q-57 0 -156.5 -17.5t-121.5 -44.5
q-8 -15 -24.5 -45.5t-24.5 -46.5q-36 -61 -90 -164q-113 -230 -215 -442q-74 -151 -88 -180v-2l-2 -4q0 -1 -1.5 -2t-1.5 -2h5q59 12 88 30q420 266 725 580q4 5 17 18.5t18 19t16 18t16.5 19t14.5 17.5t15 19.5t12.5 19t12.5 20.5z" />
    <glyph glyph-name="S" unicode="S" horiz-adv-x="1468" 
d="M1497 377q-12 -8 -51 -8q-246 0 -504 -78q-10 -1 -13 -6t-3 -17q15 -301 -174 -499q-217 -230 -537 -230q-72 0 -127 27q-51 26 -73.5 73.5t-10.5 104.5q19 78 90 156.5t163.5 139.5t205.5 116.5t204.5 90.5t172.5 60q29 7 32.5 13.5t-2.5 37.5q-3 21 -16 78
q-24 114 -29 142q-35 210 133 350q56 46 126 77t133 31q62 0 94 -35q44 -48 26 -129q-12 -63 -75.5 -144.5t-122.5 -113.5l-6 -4q-3 -2 -10.5 -5t-10.5 -5h-12q-15 0 -21 4q-10 10 -6 31q3 21 12 35q8 16 25 20q15 0 27 -12l6 -6q2 0 8 6q66 62 101 117.5t42 128.5
q0 31 -18.5 49.5t-50.5 19.5q-73 0 -138 -32q-176 -78 -217 -244q-16 -69 4 -166l11 -45q5 -24 16.5 -79.5t16.5 -84.5q0 -6 4 -10q2 -2 14 2q18 3 78 16q9 2 101.5 21.5t141.5 27.5q61 10 144 17q1 0 9 0.5t20.5 1t23.5 0.5q25 0 33 -2q5 0 10.5 -6.5t5.5 -12.5
q0 -11 -6 -20zM229 -420q256 15 433 158q235 194 223 514q-1 4 -2 12t-2 10q-2 0 -9.5 -2t-9.5 -2q-76 -23 -162.5 -56t-193 -84.5t-195 -108t-160 -128.5t-96.5 -143q-18 -54 2 -96q37 -62 152 -70q3 -1 10.5 -2t9.5 -2z" />
    <glyph glyph-name="T" unicode="T" horiz-adv-x="827" 
d="M1649 977q-29 2 -88 2q-133 0 -344 -18q-30 -3 -90.5 -9.5t-90.5 -9.5q-53 -4 -159 -16q-41 -3 -56 -35q-132 -240 -159 -287q-21 -39 -61.5 -110.5t-53.5 -94.5l-19 -32q-237 -426 -364 -699l-2 -2q-3 -7 -9.5 -21.5t-9.5 -21.5q-6 -15 -16 -18q-2 -2 -8 -2t-10 2
q-12 4 -15 12q-4 8 4 27q4 8 12.5 23.5t12.5 23.5q17 38 45 92q208 404 367 688q15 25 32 59q2 3 4 5q0 1 2 4t2 4q-3 5 -4 10t0.5 10t2.5 7.5t4 8t4 7.5t2 6t2 6q10 27 10 59q-2 80 -86 164l-6 4q-70 70 -131 70q-11 0 -31 -4q-70 0 -180 18q-24 3 -43 19q-25 15 -21 41
q3 19 31 30q30 9 66 9h20q84 -5 197 -60q24 -8 30 -8q76 0 220 8q15 1 45 2t45 2q14 0 22 15q6 14 29 37q2 2 6 10q10 10 20 10q11 0 23 -8q23 -11 16 -39q-2 -4 -2 -12q2 0 7.5 -1t7.5 -1q19 2 57.5 6t58.5 6q19 1 76 7t88 7q297 29 494 29q9 -1 51 -8q17 -4 20 -13
q4 -7 -2 -18q-4 -8 -22 -8h-6q-4 0 -12.5 1t-12.5 1q-4 1 -11.5 2t-10.5 2zM774 905q0 2 1 4.5t1 3.5q-2 2 -4 2q-38 -6 -78 -6q-15 -1 -46 -4t-48 -4q-10 -1 -29.5 -1.5t-35 -1.5t-29.5 -3h-4q2 0 2 -4q2 0 4.5 -2t3.5 -2l4 -2q113 -85 131 -211q9 16 55.5 101t71.5 130z
M289 944q0 10 -80 19q-4 0 -12 1t-11 1q-15 0 -14 -4q0 -2 2 -3q30 -20 92 -20q23 0 23 6z" />
    <glyph glyph-name="U" unicode="U" horiz-adv-x="1173" 
d="M1182 764q6 -5 9.5 -15.5t0.5 -17.5q-10 -34 -27 -59q-12 -15 -24 -33q-68 -94 -117 -150q-82 -91 -143 -213q-13 -20 -27 -49q-5 -10 -15.5 -30.5t-15.5 -30.5l-30 -60q-9 -15 -15 -30q-1 -1 -8 -15l-12 -30q-8 -13 -15 -31q-8 -23 -24 -63q-15 -32 -29 -78
q-3 -7 -8 -21.5t-8 -21.5q-5 -15 4 -19t14 -20q0 -17 -26 -39q-28 -14 -33 -14h-6q-20 8 -17 26q-1 4 4 25q2 2 2 6q3 8 9.5 24.5t9.5 24.5q5 16 22 59q15 37 25 60q5 10 13.5 30.5t13.5 30.5q12 30 28 62q2 5 29 59l31 62q8 18 25.5 52t25.5 52q-215 -215 -436 -391
q-34 -29 -101 -66t-100 -37q-27 0 -47 17q-25 19 -30 50t1 58q14 102 55 205q108 289 340 731q21 44 91 176q17 35 34 88q5 20 2 23q-4 2 -20 -4q-145 -42 -293 -163.5t-240 -258.5q-38 -55 -45 -100q-4 -18 -4 -45q4 -21 13.5 -28t33.5 -7q17 0 25 -8q4 -8 4 -17
q0 -20 -16 -28q-8 -5 -17 -5q-14 0 -18 2q-76 18 -76 132q0 39 40 102.5t78 107t77 82.5q89 89 214.5 177t219.5 106q8 2 24 2q25 0 37 -12q18 -22 8 -64q-10 -41 -32 -84q-94 -183 -193 -368q-230 -437 -289 -703l-6 -26q-2 -9 -2 -54q5 -32 27 -32q6 0 14 4
q60 19 157.5 88t197 156.5t182 165.5t137.5 137q23 27 37 51q24 41 45 78q33 57 74 124q11 19 53 66q2 5 7.5 10.5t6.5 7.5q13 18 29 23q4 2 16 2q15 0 19 -4z" />
    <glyph glyph-name="V" unicode="V" horiz-adv-x="1130" 
d="M1579 987h-2q-120 -52 -260 -160q-180 -137 -467 -421q-279 -279 -608 -687q-2 -4 -6 -8q-10 -13 -25 -24q-14 -9 -27 -9q-4 0 -10 3q-12 9 -12 34q5 29 10 39q19 45 39 103q60 148 102 245q100 217 205 437q21 45 62.5 134t62.5 134q18 32 59 145q9 36 9 66q0 35 -33 35
q-23 0 -60 -11q-104 -30 -225.5 -110.5t-219 -191.5t-116.5 -210q-4 -19 0 -57q5 -34 45 -39q33 0 33 -28q0 -11 -8 -19q-8 -10 -29 -10q-29 1 -53.5 22t-36.5 54q-14 49 0 100q25 111 142 235.5t259 210t250 101.5q3 0 9.5 1t9.5 1q75 0 86 -92v-2q-1 -4 -3 -12.5t-3 -12.5
q-1 -10 -6.5 -29t-6.5 -24q-27 -88 -110 -250l-6 -14q-245 -472 -369 -803q-12 -40 -20 -60q43 48 106 125q64 76 182 202.5t279 287t313.5 298.5t289.5 233t204 95q23 0 35 -2q7 0 14.5 -9t7.5 -15q0 -14 -7 -17.5t-22 -3.5q-6 2 -18 2q-24 0 -45 -12z" />
    <glyph glyph-name="W" unicode="W" horiz-adv-x="1601" 
d="M1260 1042q89 -19 138.5 -52.5t78.5 -112.5q23 -70 20 -125q0 -294 -297 -654q-57 -69 -133.5 -146.5t-172 -159.5t-197.5 -137.5t-181 -60.5q-104 0 -110 101q-3 68 16 141q28 101 72 221t76 195t92 213q9 18 36 78l2 4q-2 -4 -10 -8q-144 -123 -328 -324
q-28 -29 -86.5 -89.5t-87.5 -90.5l-32 -33q-25 -25 -39 -37q-6 -4 -17 -4q-8 0 -12 2q-15 9 -12 29q0 16 10 39q5 14 15.5 40t15.5 40q41 112 84 206q61 141 147 324q73 147 119 264q2 5 5.5 14t4.5 13q4 12 6 22q5 18 -2 25q-2 2 -4 2q-6 0 -18 -6q-36 -11 -66 -35
q-219 -157 -313 -399q-29 -69 -23 -129v-4q2 -24 8.5 -35t26.5 -11q7 0 13 -9.5t8 -18.5q0 -15 -9 -21q-8 -8 -22 -8q-78 20 -78 107q-6 83 35 170q116 253 348 411q33 23 70 35q20 4 26 4q20 0 33 -10q19 -19 19 -57q-7 -42 -19 -64q-46 -109 -117 -254q-26 -55 -34 -74
q-148 -301 -209 -475q-1 -4 -3 -13t-3 -13q75 75 227 223q92 92 276 272q9 10 27.5 26.5t24.5 22.5l16 13q20 15 24 16q2 0 7 1t8 1q10 0 18 -4q8 -6 8 -31q0 -8 -8 -20q0 -1 -1 -2t-1 -2q-262 -503 -315 -813q-3 -8 -8 -35q-2 -18 2 -53q9 -45 51 -45h4q77 11 144 46
t149 95q106 78 204.5 172t190 204.5t157 237.5t89.5 248q21 116 -6 207q-43 128 -178 137q-19 0 -37 6q-6 3 -12.5 12.5t-6.5 16.5q0 12 6 18q10 5 27 5q20 -5 23 -5z" />
    <glyph glyph-name="X" unicode="X" horiz-adv-x="1226" 
d="M1225 408q6 2 16 2q19 0 17 -14q-1 -13 -21 -23q-7 -3 -19 -6t-16 -5q-4 -1 -10 -4l-8 -4q-206 -72 -334 -200q-28 -28 -23 -93q4 -176 4 -264v-6v-7t-0.5 -6t-1 -6.5t-2 -5.5t-3.5 -5t-5.5 -4t-7.5 -3q-20 0 -27.5 4t-19.5 23q-79 120 -27 262q5 11 23 43q2 5 14 29
q8 19 8 30q-1 44 -4 124.5t-4 113.5q0 2 -4 14q-2 -2 -5.5 -4.5t-4.5 -3.5l-53 -57q-405 -432 -631 -686q-13 -13 -29 -25q-9 -6 -20 -6t-15 2q-14 8 -14 31q0 37 38 71t81 54q13 5 28 20q64 68 387 416q12 13 95.5 99.5t126.5 133.5q16 16 14 33l-2 35q-16 234 -45 346
q-7 33 -22 67.5t-35 41.5q-2 0 -5.5 1t-5.5 1q-10 0 -32 -11q-129 -65 -242.5 -217t-122.5 -284q0 -33 15 -59.5t44 -26.5q13 0 29 4q2 1 6.5 2t7.5 2q2 1 17 6q4 2 12 2q19 0 25 -18q4 -8 0 -21q-15 -31 -82 -31q-55 0 -90 41q-40 46 -37 105q0 72 40.5 160t101.5 164
t133.5 137.5t135.5 87.5q18 6 35 6q27 0 48.5 -15t36 -43.5t21 -48t15.5 -51.5q6 -26 11 -56.5t8 -50t7 -59t5 -49.5t4.5 -58t3.5 -50q0 -9 4 -25q324 320 500 465q26 21 162 121l20 12q19 14 57 22l4 5q2 0 6.5 1t6.5 1q11 0 22 -7q15 -8 15 -28q0 -5 -7 -13t-14 -8
q-29 -2 -59.5 -15.5t-49 -27.5t-49.5 -39q-12 -8 -20 -16q-283 -226 -582 -528q-12 -12 -12 -27q1 -33 4 -100.5t4 -100.5l2 -39v-6q2 0 3.5 1t2.5 1q67 68 176 128t220 96zM778 -152q2 -2 4 -2q4 0 5 15t0 47t-1 33v14q0 79 -1 84q-2 8 -5 2q-25 -45 -25 -101t23 -92z" />
    <glyph glyph-name="Y" unicode="Y" horiz-adv-x="1323" 
d="M1061 33q-4 1 -12.5 3t-12.5 3q-60 20 -65 20q-15 0 -27 -18q-114 -170 -233 -256q-219 -166 -418 -166q-80 0 -152 28t-112 87q-45 70 -9 133q32 53 80 95.5t107 69.5t120 46t132 29.5t128.5 15t123.5 6.5q21 0 57 -4q74 -3 147 -12q11 0 16 0.5t11 4.5t10 13
q85 148 136 267t69 247q3 39 -8 47q-2 2 -10 2q-31 0 -146 -92q-57 -44 -131 -108q-18 -15 -52.5 -44.5t-51.5 -43.5q-78 -62 -115 -87q-29 -20 -70 -30q-10 -4 -28 -4q-22 0 -35 8q-23 16 -29 55q-3 39 6 94q19 91 95 271l12 30q43 90 92 213q17 39 29 103q6 27 0 33
q-4 4 -15 4q-10 0 -18 -2q-115 -32 -215.5 -119t-165.5 -197q-34 -55 -37 -106q-3 -41 23 -70q21 -24 63 -27q12 0 53 9q9 0 15 2q19 0 31 -4q10 -7 10 -15q2 -12 -6 -24q-10 -10 -25 -13q-3 0 -10 -1t-10 -1q-6 0 -18.5 -1t-18.5 -1q-68 0 -111.5 31.5t-46.5 99.5
q-3 69 35 134q134 236 383 342q32 12 51 14q3 0 8 1t8 1q28 0 47 -19q25 -25 19 -59q-4 -43 -31 -121q-26 -70 -82 -198q-15 -35 -18 -41q-69 -160 -96 -271q-9 -43 -9 -71q0 -35 19 -35q18 0 51.5 18t52.5 33q22 16 117 96q8 6 23.5 19.5t23.5 19.5q50 40 59 47
q130 108 144 119q46 34 82 49q18 10 43 10q59 0 63 -77q0 -135 -110 -361q-39 -78 -97 -184l-8 -12l-4 -11q2 -2 10 -2q7 -1 21.5 -4t21.5 -4q5 -1 15.5 -3t15.5 -3q20 -5 25 -12q7 -10 4 -21t-13 -18q-4 -2 -10 -2q-12 0 -16 2zM909 70h-10q-94 8 -145 14l-58 2
q-19 0 -65 -4q-59 -7 -98 -12t-101.5 -16t-108 -26.5t-96 -37t-88.5 -53t-63 -70.5q-47 -75 14 -127q87 -72 213 -72q88 0 178.5 34.5t167.5 92t141.5 125t114.5 141.5q3 2 4 4t1 3z" />
    <glyph glyph-name="Z" unicode="Z" horiz-adv-x="1347" 
d="M1364 1087q67 0 80 -34q7 -24 -12 -49q-6 -8 -21 -23q-256 -243 -960 -920q-7 -7 -42 -41t-53 -53h-2q0 -1 -1 -2t-1 -2q266 74 492 74q334 0 485 -119q24 -17 37 -55q17 -55 -31 -86q-39 -24 -53 -29q-1 0 -3.5 -1t-4.5 -1q-17 0 -25 12q-6 13 -2 17q2 8 19 18l8 2
q6 2 17 8t12 7q17 11 20 28q0 15 -12 27q-35 35 -84.5 59t-109.5 35.5t-106.5 16.5t-107.5 8q-9 1 -28 2t-29 2q-275 -6 -559 -103q-21 -6 -37 -22q-21 -21 -64 -65t-65 -66l-49 -51q-2 -2 -6.5 -5.5t-6.5 -5.5q-10 -8 -32 -8q-15 10 -19 27q-12 52 8 90q26 48 76 74
q13 7 78 41q27 12 59 28q33 19 45 31q73 70 219 210.5t218 211.5q48 47 145 141t145 141q47 47 134 130.5t114 109.5q78 74 115 111h2q0 4 4 4q2 6 10 18q-10 2 -22 2q-38 -8 -68 -18q-159 -65 -416 -178q-24 -12 -74 -35.5t-75 -34.5q-64 -25 -98 -33q-4 -1 -31 -6h-10
q-22 0 -27 18q-3 12 6 25q0 8 2 10q2 4 6 8q145 110 263 123h14q21 0 29 -2q6 -2 16 -2q18 0 31 8l14 7q171 77 295 131q80 34 129 34zM104 -209q-12 -8 -16 -12q-3 -2 -20 -25q30 30 36 37z" />
    <glyph glyph-name="underscore" unicode="_" horiz-adv-x="778" 
d="M719 -41q19 -6 16 -25q0 -14 -18 -18h-12h-5q-117 4 -196 8h-27l-65 -2q-81 -4 -289 -12q-15 0 -19 -8q-6 -13 -18 -13q-4 0 -14 5h-4q-23 8 -27 22q-3 5 2 14q7 11 14 13q6 1 18.5 2t18.5 2q107 0 160 4q150 10 440 10h4q15 0 21 -2z" />
    <glyph glyph-name="a" unicode="a" horiz-adv-x="591" 
d="M606 399q7 -2 12 -12q0 -10 -20 -20q-19 -6 -56 -20.5t-67 -24.5t-57 -15q-32 -4 -49 -4q-45 0 -89 17.5t-61 52.5q-3 6 -8 6t-14 -5.5t-11 -6.5q-7 -4 -22.5 -13.5t-22.5 -13.5q-109 -65 -178 -102q-15 -9 -31 -9q-25 0 -34 13q-28 41 12 84q39 42 92 78t98 36
q42 0 70 -28q6 -6 12 -6t15 6q21 10 28 8q5 -1 9 -6t8.5 -14l5.5 -11q13 -18 35 -33q25 -13 63 -16q55 0 82 6q33 6 154 49q16 4 24 4zM129 385q2 1 1.5 5t-3.5 5q-4 2 -14 2q-56 0 -129 -59q-50 -40 -50 -51q0 -4 7 -4q8 0 12 2q13 3 44.5 19.5t71 40t44.5 26.5q13 4 16 14
z" />
    <glyph glyph-name="b" unicode="b" horiz-adv-x="374" 
d="M-184 123q29 10 51 49q63 110 108 184q204 342 334 584q56 101 80 139q4 11 8 13q9 6 23 6q6 0 8 -2q6 -4 9.5 -15t0.5 -16t-9 -13.5t-9 -13.5q-1 -2 -5 -7t-5 -7q-19 -32 -103.5 -180.5t-103.5 -179.5q-26 -44 -83 -138t-93 -155.5t-39 -71.5q-1 -3 5 0q5 3 24 15
q39 26 53 32q16 8 32 8q9 0 21 -4q26 -13 29 -45q0 -6 6 -6l28 12q32 17 95 45q105 45 114 41q5 -2 7 -7t-3 -12t-18 -13q-47 -19 -129 -60.5t-100 -50.5q-24 -9 -39 -31q-123 -170 -293 -184q-18 0 -33.5 9t-15.5 26q4 22 14 30q7 7 31 19zM80 305q-43 -21 -82 -50t-57 -54
q-2 -4 2 -4q3 0 17 5.5t17 6.5q10 5 34.5 17.5t37.5 19.5t30.5 19t29.5 24q11 11 8 16.5t-15 5.5q-13 0 -22 -6zM51 203q-4 0 -6 -2q-95 -49 -207 -113q-8 -5 -8 -6q2 -2 14 -2q104 16 207 123z" />
    <glyph glyph-name="c" unicode="c" horiz-adv-x="335" 
d="M330 352q-85 -47 -193 -100t-143 -57q-4 -2 -14 -2q-19 0 -31 12q-15 15 -8 45q13 49 41.5 103t75.5 99.5t94 45.5q45 -6 45 -60q0 -34 -39 -82q-5 -8 -21 -8q-22 0 -22 14q-4 6 4 23q2 3 3.5 7t2.5 5q13 22 16 29q2 4 2 16q0 9 -10 9q-2 0 -12 -5q-17 -7 -31 -18
q-80 -73 -108 -162q-9 -30 6 -30q17 1 48.5 13t75.5 33t76 37t78.5 40.5t52.5 27.5q30 12 35 12q14 0 11 -16q-1 -5 -9.5 -13t-17.5 -13z" />
    <glyph glyph-name="d" unicode="d" horiz-adv-x="299" 
d="M25 356q-24 0 -41 -14q-11 -8 -29 -28.5t-25 -34.5q12 10 47 38.5t48 38.5zM389 801q-37 -62 -105 -170t-91 -146q11 6 16 15q106 114 184 297q2 4 6 16q-2 -4 -10 -12zM-68 -152q4 -16 -2 -28q-15 -41 -65 -70q-21 0 -35 6q-17 13 -4 35q3 7 8 21.5t8 21.5q4 11 14.5 33
t14.5 31q52 112 152 319q55 118 59 129l-7 -3l-1 -1q-9 -7 -28.5 -25t-31.5 -28q-78 -67 -92 -78q-15 -15 -41 -25q-2 0 -5.5 -1t-4.5 -1q-7 0 -16 6q-12 12 -9 29q11 57 78 129t119 72q10 0 45 -10q36 11 45 32q125 235 240 406l12 20q16 23 39 37q6 6 16 6q3 0 11 -4
q18 -8 20 -29t-6 -34q-109 -261 -229 -389q-8 -9 -28.5 -24t-27.5 -21q-11 -7 -33 -25q-17 -17 -22 -29q-67 -142 -178 -389q-23 -36 -37 -84q-5 -9 -2 -12q4 -4 8 -6q7 -3 16 -17z" />
    <glyph glyph-name="e" unicode="e" horiz-adv-x="307" 
d="M332 387q3 -8 0 -14q-6 -18 -264 -127q-45 -15 -68 -15q-56 0 -61 50q-2 25 14 61q22 43 73 89t93 46q38 0 47 -33q7 -24 -10 -41q-7 -9 -35 -18q-44 -12 -72 -16q-17 -4 -29 -9q-19 -8 -35 -33t-8 -44q5 -13 29 -13q3 0 9 1t8 1q26 3 55 17q18 8 53.5 24.5t52.5 24.5
q12 5 52.5 25t62.5 28q12 6 25 6q8 -4 8 -10zM117 428q-3 6 -11 6q-17 0 -40 -21q-10 -10 -3 -10q5 -1 19 3.5t25.5 11t9.5 10.5z" />
    <glyph glyph-name="f" unicode="f" horiz-adv-x="225" 
d="M424 995q18 -18 18 -37q0 -33 -20 -63q-67 -123 -209 -211q-19 -11 -31 -27q-186 -350 -186 -366q95 52 229 108h6q21 0 21 -12q4 -13 -23 -27q-120 -46 -231 -108q-19 -11 -33 -35q-18 -34 -47.5 -100.5t-44.5 -96.5q-3 -6 -8 -18t-8 -18q-3 -3 -6.5 -8t-5 -7t-4.5 -4
t-7 -2q-2 0 -5 1t-5 1q-24 6 -39 55q-8 38 6 76q39 88 119 144q35 24 47 57q15 29 42.5 83.5t50 98.5t42.5 82q7 15 21.5 43t19.5 39q4 6 4 16q-9 9 -12 11q-13 8 -10 22q4 17 16 17q45 7 74 59q2 2 10 14q22 29 62 82.5t57 75.5l18 23q10 12 31 30q11 11 20 11t21 -9z
M-94 174q-1 2 -3.5 1t-4.5 -3.5t-2 -3.5q-2 -2 -6 -5.5t-5 -4.5q-54 -63 -59 -109q0 -14 2 -16q6 -3 39.5 61t38.5 80zM350 877q4 11 21 36q-12 -9 -25 -22q-23 -34 -55 -70q0 -3 -2 -6t-5.5 -6.5t-4.5 -5.5q1 1 4.5 2.5t5.5 3.5q9 11 61 68z" />
    <glyph glyph-name="g" unicode="g" horiz-adv-x="436" 
d="M463 385q3 -18 -23 -27q-176 -81 -329 -190q-3 -2 -19 -14t-24.5 -20t-14.5 -17q-7 -9 -13.5 -20t-14 -24.5t-11.5 -19.5q-21 -33 -25.5 -40.5t-31 -48t-39.5 -58.5t-41 -58.5t-46.5 -62t-46.5 -55t-49.5 -52t-46.5 -38.5t-47 -28.5t-42 -8.5q-19 4 -27 10q-30 24 -4 82
q44 85 164.5 201.5t238.5 209.5q5 4 18 13t23 17t17 16q15 17 28.5 38.5t29 52t22.5 42.5q5 9 31 61t42 78q-14 -6 -41 -27q-14 -10 -42.5 -32.5t-43.5 -32.5q-17 -12 -48 -28.5t-46 -16.5q-21 4 -27 12q-10 20 -2 39q12 23 23 29q72 57 166 63q10 0 18 8q26 22 35 29
q18 11 27 20q3 2 11 8.5t13 8.5q8 4 17 4q6 0 10 -4q10 -8 -4 -35q-50 -99 -84 -158q-5 -9 -15.5 -27.5t-15.5 -27.5q-3 -4 -8 -13.5t-8 -13.5q-1 -2 -5.5 -10t-5.5 -12q13 8 38.5 24.5t39.5 24.5q145 91 240 133q9 6 22 6q14 0 17 -10zM-18 332q5 2 23.5 13t23.5 13
q-3 4 -22 -5.5t-25 -18.5v-2zM-381 -360q54 33 106 81t97.5 107t80 111.5t72.5 117.5q-55 -43 -133.5 -113t-160.5 -160t-87 -130q0 -13 13 -16q8 0 12 2z" />
    <glyph glyph-name="h" unicode="h" horiz-adv-x="454" 
d="M170 233q-20 7 -29 62q0 17 -6 20q-8 0 -18 -10q-50 -35 -78 -63q-14 -14 -28 -29t-31 -34t-27 -29q-41 -41 -51 -54q-32 -32 -52 -47q-6 -6 -18 -6q-6 0 -10 2q-4 3 -4 27q21 42 26 51q181 310 197 336q289 489 291 493q8 12 33 62q1 2 4.5 10.5t6.5 15.5t3 9
q17 21 22 22h5q6 0 14 -4q17 -9 4 -39q-117 -191 -309.5 -514t-192.5 -338q-1 -6 10 6q4 4 10 11q4 5 5 6q20 20 51.5 54t54 52.5t62.5 42.5q13 8 28 8q27 0 31 -43v-2q2 -4 2 -10q-3 -31 6 -37q1 0 3 -1t3 -1q21 0 230 117q22 12 47 18h6q8 0 11.5 -5.5t0.5 -12.5t-12 -12
q-144 -82 -186 -101l-45 -20q-35 -17 -54 -17q-8 0 -16 4z" />
    <glyph glyph-name="i" unicode="i" horiz-adv-x="325" 
d="M74 455h-6q-24 0 -27 20q-5 23 8 33q12 12 27 16l8 4q35 0 35 -26q-1 -15 -15.5 -29.5t-29.5 -17.5zM350 393q5 -10 -3 -23.5t-17 -17.5q-18 -10 -52.5 -30.5t-48.5 -28.5q-18 -10 -53.5 -29.5t-38.5 -21.5q-58 -36 -65 -39q-5 -2 -16.5 -7.5t-17.5 -8t-15.5 -5
t-18.5 -2.5q-33 0 -47 19q-22 28 2 94q5 16 19.5 49t19.5 51q16 39 31 39q12 0 18 -4q19 -12 0 -45q-5 -10 -16.5 -30.5t-16.5 -30.5q-27 -51 -30 -72q-4 -33 16 -33q1 0 4.5 1t5.5 1q15 4 30 10t33 16t27.5 15.5t32 19.5t27.5 17q56 35 155 94q9 6 23 6q10 0 12 -4z" />
    <glyph glyph-name="j" unicode="j" horiz-adv-x="405" 
d="M129 690q-14 7 -10 29q0 15 18.5 37t32.5 24q14 0 23 -6q10 -8 10 -24q0 -15 -14.5 -35.5t-28.5 -26.5q-6 -2 -13 -2q-12 0 -18 4zM432 383q3 -15 -22 -25q-143 -51 -291 -125t-236 -153q-25 -29 -53 -76q-101 -172 -194.5 -292t-213.5 -201q-52 -31 -84 -37q-3 0 -8 -1
t-8 -1q-44 0 -67 26q-49 52 49 168q52 69 151 150q98 82 305 225q51 32 72.5 53.5t52.5 71.5q128 228 197 434q5 13 15 24t20 11q6 0 8 -2q15 -9 6 -45q-64 -172 -219 -443q226 154 483 246q6 2 19 2q16 0 18 -10zM-207 12l2 4l-2 4q-15 -7 -33 -22q-197 -142 -297 -231
q-104 -84 -168 -183q-1 -1 -4 -5.5t-4.5 -7t-4 -7.5t-4 -8.5t-3 -8t-1 -8t1.5 -7.5t4 -7t7 -6q6 -4 21 -4q44 0 112 45q106 79 190 186.5t183 265.5z" />
    <glyph glyph-name="k" unicode="k" horiz-adv-x="370" 
d="M442 1087q3 -3 2 -13t-4 -15l-30 -43q-26 -34 -35 -51q-29 -48 -82.5 -131.5t-99 -158t-91.5 -157.5q-108 -196 -96 -203q2 -2 9.5 7.5t20.5 25.5t23 25q74 68 140 98q1 0 3.5 1t4.5 1q21 0 29 -12q10 -17 -7 -39q-22 -26 -53 -47q-10 -6 -30.5 -20t-32.5 -21
q-58 -35 -64 -39q-2 -1 -26 -25q-1 -1 -4.5 -4t-6 -5t-5 -5t-2.5 -6t3 -6q2 -2 4 -2q1 0 19 -7t34 -12.5t19 -5.5q20 -4 29 -4q12 0 23.5 2.5t22 8.5t17 10t17.5 12t14 10q30 23 86 71.5t63 53.5q1 0 11 7t16 7t10 -4q9 -10 -18 -37q-85 -86 -156 -135q-55 -38 -110 -41
q-54 0 -113 27q-12 4 -16 4q-12 0 -25 -16q-24 -36 -57 -74q-1 -1 -9 -11t-12 -16q-28 -35 -41 -35q-4 0 -12 4q-15 11 -2 37l6 13q40 72 49 90q1 1 2 3t2 3q12 20 6 31q-2 7 13 22q2 2 6 5t6 5q9 9 12 15q55 91 371 622q11 18 29.5 52t25.5 47q7 12 19.5 34t19.5 33
q10 21 21 23h6q17 0 26 -9z" />
    <glyph glyph-name="l" unicode="l" horiz-adv-x="223" 
d="M365 1071q9 12 22 12q6 0 14 -4q20 -13 7 -35q-8 -15 -29 -52t-31 -56q-17 -29 -50.5 -88.5t-49.5 -89.5q-7 -12 -20 -36q-195 -351 -279 -540l-4 -6q-1 -3 -3.5 -7.5t-4 -8t-3.5 -6.5v-4q-18 -42 -14 -72q9 -45 -14 -86q-12 -23 -27 -23q-8 0 -12 4q-7 5 -14 19
q-2 1 -4 3.5t-3 2.5v4q1 3 2 8.5t2 7.5q1 6 4 16t3 11q13 35 16 45q13 41 47 123q79 178 291 559q76 140 143 283l4 4q1 2 3.5 6t3.5 6z" />
    <glyph glyph-name="m" unicode="m" horiz-adv-x="600" 
d="M-80 211q-8 0 -14 6q-11 8 -4 29q3 18 12 33q79 112 94 141l2 4q2 2 6.5 6t6.5 6q9 6 18 6q8 0 18 -10q7 -10 4 -20q0 -8 -12 -17q-44 -38 -82 -104q-13 -19 -12 -23q0 -2 2 -2t4.5 1.5t5.5 3.5t7 5.5t7 6t7 6t6 4.5q4 3 16.5 12t18.5 12q7 5 21.5 15.5t21.5 15.5
q5 3 15 9.5t15 9.5q21 16 41 16q9 0 11 -2q21 -9 24 -47q3 -21 8 -23q4 -4 25 8q18 13 25 17q31 22 43 29q20 4 26 4q12 -8 17 -23q6 -18 12.5 -25.5t17.5 -7.5q20 0 166 54q56 19 78 28q8 4 12 4q7 0 11 -4q5 -2 8 -12q0 -6 -6.5 -14t-12.5 -11q-124 -45 -168 -59
q-3 -2 -38.5 -11t-38.5 -9q-54 0 -68 36q-3 7 -6 11q-6 0 -12 -4q-20 -15 -52 -35q-26 -13 -39 -13q-8 0 -12 2q-20 9 -29 46q-7 19 -10 20q-5 0 -18 -10q-30 -21 -60 -41q-12 -8 -36 -24.5t-37 -24.5q-39 -25 -54 -29q-4 -2 -12 -2z" />
    <glyph glyph-name="n" unicode="n" horiz-adv-x="614" 
d="M104 330q-59 -31 -135 -115l-45 -45q-9 -14 -22 -14q-7 0 -11 4q-9 5 -11 11.5t0 11t6 11.5t5 9q17 39 54.5 108.5t46.5 87.5l33 64q4 4 6 8q11 16 18 18h4q9 0 15 -6q19 -13 2 -41q-28 -43 -84 -141q-2 -2 -2 -6q4 0 6 2q80 80 137 80q46 0 88 -51q28 -41 51 -41
q9 0 49 14q9 3 25 10.5t20 9.5q143 61 224 76q3 0 9.5 1t10.5 1q25 0 25 -18q0 -11 -4 -17q-8 -8 -19 -8q-89 -8 -184 -53q-113 -52 -156 -55q-40 0 -63 33q-8 8 -10 12q-3 4 -10.5 12t-10.5 12q-18 21 -41 21q-12 0 -27 -6z" />
    <glyph glyph-name="o" unicode="o" horiz-adv-x="309" 
d="M2 211q-15 -12 -31 -12q-13 0 -26 10q-15 19 -12 48t16 52q18 35 42.5 72.5t64.5 75t73 37.5q16 0 27 -11q31 -28 22 -63q-3 -11 0 -14q0 -5 12 -5q20 -1 57.5 -2t57.5 -2h10q9 0 13 -2q18 -9 2 -22q-10 -8 -21 -8q-30 0 -81.5 2.5t-84.5 3.5q-8 0 -10 -2q-3 -2 -4 -16.5
t-10 -36t-31 -40.5q-34 -31 -86 -65zM111 451q-17 -7 -27 -17q-62 -51 -111 -147q-4 -11 -8 -37q0 -10 4 -12q2 -2 13 2q72 38 106 96q14 23 2 45q-10 16 -4 25q5 9 22 10.5t19 3.5q2 0 4 8.5t0.5 18t-6.5 12.5q-4 1 -5 0l-4 -4t-5 -4z" />
    <glyph glyph-name="p" unicode="p" horiz-adv-x="401" 
d="M373 393q16 4 28 4t16.5 -6.5t1.5 -14t-9 -9.5q-108 -29 -136 -35q-90 -23 -170 -74q-41 -25 -118 -57q-4 -2 -12.5 -5.5t-12.5 -5.5q-23 -9 -35 -32q-125 -231 -223 -475q-3 -8 -17.5 -40t-21.5 -51l-2 -6q-4 -14 -12 -20q-2 0 -4 -1t-4 -1q-1 0 -3.5 2t-3.5 2
q-10 3 -12 8q-3 16 4 27q7 16 21 45.5t20 44.5q114 264 176 379q28 49 39 73q1 1 2.5 7.5t3.5 9.5l-16 -2h-18q-1 0 -41 -6q-35 0 -37 22q0 8 6.5 18.5t13.5 14.5q67 30 123 51q34 12 45 39q11 22 21 37q14 21 4 24q-31 9 -17 35q13 22 39 27q25 5 41 35q15 34 49 92
q1 1 7 12t8 17l2 4q1 2 5 8.5t7 11.5q7 10 25 10q8 0 14 -6q13 -11 0 -37q-54 -79 -70 -108q-3 -3 -6 -12h15l30 6q9 1 29 3t29 3q27 0 41 -4q24 -9 30 -27q9 -18 -4 -41q-6 -13 -5 -14q1 -2 7 -2q11 0 19 2q13 3 46.5 9.5t41.5 8.5zM10 311q-5 -8 -8 -16h2q13 0 19 2
q19 3 36 10q30 9 60 21q36 13 53 22t23 15t20 24q2 2 4 8t4 9v4q-2 0 -4 2q-12 4 -16 4q-40 -6 -86 -15q-4 -1 -14 -2t-15 -2q-35 -6 -49 -39q-5 -9 -15.5 -25.5t-13.5 -21.5zM-121 199q5 2 17.5 6t17.5 6l4 4h-4q-4 -1 -22.5 -8t-26.5 -10h-2l4 -2zM-12 238q18 5 22 14
l-4 -2q-6 -2 -17.5 -7t-17.5 -7v-3q10 5 17 5z" />
    <glyph glyph-name="q" unicode="q" horiz-adv-x="405" 
d="M274 453q17 -7 5 -29q-9 -16 -20.5 -31.5t-27.5 -34.5t-24 -30q-119 -154 -215 -303q-10 -17 -32 -50.5t-32 -50.5q-5 -6 -9 -13.5t-6.5 -12.5t-5.5 -15t-4.5 -13t-4.5 -15t-3 -13.5t-3 -15.5l-3 -14q-4 -20 -24 -105v-4q-1 -4 -4 -13.5t-4 -13.5q-15 -38 -41 -38
q-2 0 -5 2t-4 2q-18 6 -24 18q-10 14 -2 41q66 180 219 401q35 51 131 183q10 15 31 43t31 43q4 4 4 8q-2 -1 -5.5 -1t-5.5 -1q-15 -5 -40.5 -16t-30.5 -13q-21 -8 -65 -26.5t-66 -26.5q-27 -10 -52 -10q-20 0 -28 14q-7 15 2 33q8 12 14 16q101 88 273 113q3 -1 15.5 -2
t20.5 -6q10 -7 15 -7q7 0 14 7q2 2 8 2t8 -2zM168 410l-6 2q-108 -16 -189 -74q-3 -2 -2 -4.5t6 0.5q36 15 106 42.5t81 31.5q0 2 4 2zM-164 -242q-19 -59 -22 -73l4 2q15 58 18 71z" />
    <glyph glyph-name="r" unicode="r" horiz-adv-x="303" 
d="M-47 109q-15 9 -14 28.5t10 34.5q10 16 40.5 66.5t49.5 78.5q12 18 10 23q-2 4 -24 10h-11q-26 5 -28 6q-14 3 -21 17q-3 13 6 26q62 84 125 119q2 2 6 2q20 10 27 10q10 0 18 -8q17 -22 -12 -51q-1 -1 -76 -70q-4 -2 -12 -9.5t-8 -10.5l10 -4q20 -8 29 -25q7 -17 -4 -39
q-10 -20 -25 -43t-34.5 -51t-28.5 -43q-11 -22 -4 -22q9 0 20 8q35 25 102.5 78.5t79.5 62.5q108 87 121 92q4 2 10 2q11 0 11 -10q2 -10 -19 -31q-54 -43 -135 -106t-125 -98q-34 -27 -67 -43q-2 0 -7.5 -1.5t-7.5 -1.5q-6 0 -12 3z" />
    <glyph glyph-name="s" unicode="s" horiz-adv-x="309" 
d="M-178 147q-3 36 22 52q12 8 19 8q6 0 16 -10q17 -17 0 -35q-3 -3 -7.5 -8t-6.5 -7t-2 -6q2 0 6 -4q22 -9 27 -10h12h4q115 9 164 100q29 50 -23 84q-25 15 -37 19q-8 4 -20 8q-26 13 -29 31q-3 13 15 30q117 117 190 117q31 0 41 -18q10 -13 -4 -37t-35 -33
q-5 -2 -38 -19t-50 -24q-5 -2 -18.5 -7.5t-20.5 -8.5q-2 -1 -8 -7q0 -1 2 -2t2 -2l4 -2q65 -35 74 -77q6 -45 -37 -97q-67 -82 -168 -88q-38 0 -66 12q-24 9 -28 41zM170 479q-2 2 -6 2q-58 -13 -115 -61q45 18 117 55z" />
    <glyph glyph-name="t" unicode="t" horiz-adv-x="415" 
d="M891 752q20 0 20 -21q0 -12 -4 -16q-6 -6 -28 -6h-111h-39q-219 0 -526 -45q-2 0 -4.5 -1t-4 -1.5t-3.5 -2t-3 -2t-2.5 -2.5t-2.5 -3t-2.5 -3.5t-2 -3.5t-2.5 -4t-2 -4q-75 -131 -137 -252q-22 -41 -61 -114.5t-54 -102.5q-21 -44 -45 -84q-5 -9 -8 -23q-2 0 -2 -4
q2 0 6 4q27 19 43 33q33 23 68 51q68 51 232.5 152t207.5 104h10h6q34 -16 -56 -57q-7 -3 -9 -4q-229 -112 -494 -322q-58 -49 -102 -127q-42 -79 -152 -256q-17 -25 -51 -55q-13 -10 -31 -10q-28 0 -28 37q10 127 141 258q44 51 123 119q15 15 26 34q221 423 306 584l12 25
q5 5 8 18q2 0 2 4h-4q-14 0 -20 -2q-88 -19 -234 -41q-22 0 -72 4q-35 6 -45 35q-6 15 0 27q6 13 19 16q4 2 14 2q6 0 10 -2q11 -4 11 -22q2 -15 16 -15h18h39h19q21 4 65.5 11.5t65.5 11.5q19 3 55 8t53 8q18 3 27 21q17 36 52 108.5t52 108.5l37 69v4q1 2 3 4.5t3 4.5
q10 14 19 14q6 0 14 -4q5 -5 7 -15t-1 -18q-6 -19 -20 -41q-4 -6 -8 -18l-17 -29q-16 -31 -47.5 -92.5t-48.5 -91.5q-4 -4 -4 -10q6 -3 12 -3q327 40 600 43q9 0 49 5q6 2 17 2zM-260 -102l-39 -43q-100 -104 -135 -201q-4 -20 -4 -33q0 4 4 4q3 2 18 17q59 70 152 239l4 6
v11z" />
    <glyph glyph-name="u" unicode="u" horiz-adv-x="489" 
d="M485 354h-4q-17 -3 -98 -24l-16 -4q-67 -21 -97 -27q-6 -2 -18 -2q-21 0 -29 8q-21 14 -24 43l-4 14q-5 0 -13 -8l-12 -10q-16 -13 -47.5 -39.5t-46.5 -40.5q-44 -37 -82 -61q-16 -13 -31 -13q-9 0 -20 7q-24 15 -15 49q42 113 95 190q11 21 30 21q11 0 13 -4q6 -6 6 -25
q-1 -4 -13 -22q-1 0 -2 -2q-1 -1 -1 -1.5t-1 -1.5q-63 -79 -86 -151q-2 -4 -2 -12q2 -2 4 -2q1 1 4.5 2t4.5 2q10 8 30 23.5t36.5 29t31.5 26.5q21 15 41 35q36 32 61 52q21 16 35 16q4 0 6 -2q17 -8 17 -49v-13q0 -20 12 -20q8 0 14 2q39 9 55 14q7 2 23.5 7.5t26.5 7.5
q34 10 82 20q4 1 12 2t12 2q6 2 19 2q16 0 16 -18q0 -15 -22 -22q-1 0 -1.5 -0.5t-1.5 -0.5z" />
    <glyph glyph-name="v" unicode="v" horiz-adv-x="462" 
d="M377 377q-28 4 -45 4q-48 0 -97 -19t-98 -58t-78.5 -67t-74.5 -75q-21 -23 -50 -45q-9 -6 -18 -6q-8 0 -10 2q-11 4 -15.5 20.5t0.5 26.5q2 11 11 33q10 23 30 64t27 56q6 13 18.5 38.5t18.5 39.5q14 32 27 55q9 22 10 27l2 4q1 1 2 3t2 3q9 19 22 19q7 0 15 -4
q10 -7 10 -15q3 -9 -6 -24q-3 -5 -9.5 -14.5t-9.5 -14.5q-63 -91 -114 -219q-2 -4 -5 -12.5t-5 -12.5q-6 -18 -3 -18q1 0 31 27t35 32q20 20 58 54.5t51 46.5q17 13 79 53q60 35 136 35q30 0 90.5 -10.5t64.5 -22.5q5 -21 -16 -21h-12q-1 0 -11.5 2.5t-28.5 6t-34 6.5z" />
    <glyph glyph-name="w" unicode="w" horiz-adv-x="686" 
d="M707 365q-29 -19 -117 -19q-103 0 -166 14q-15 0 -25 -12q-43 -63 -81.5 -105t-88.5 -67q-23 -10 -36 -10q-14 0 -23 6q-28 16 -31 55q0 45 -8 45q-2 0 -4 -2q-36 -42 -39 -45q-36 -42 -111 -121q-17 -24 -40 -24q-22 0 -25 24q-7 24 0 54q56 211 158 372q10 16 22 19h4
q11 0 17 -6q6 -4 10 -15q0 -14 -12 -28q-84 -103 -150 -316q-1 -5 -4 -15t-4 -15q-4 -13 2 -13q2 0 8 6q40 45 51 56q7 8 53 59.5t74 75.5q8 8 17 8t14.5 -8.5t5.5 -20.5q-1 -6 -2 -18.5t-2 -17.5q0 -2 -1 -10t-1.5 -13t-1.5 -14t-0.5 -15.5t1.5 -13.5t4 -11.5t7 -6.5
q2 -2 8 -2q19 0 48.5 24t50.5 47q29 37 86 123q16 21 26 21q1 0 21 -4q58 -19 135 -19q10 0 29 1t28 1q15 1 41 4.5t35 3.5q17 0 23 -12q1 -3 -1 -10t-5 -10z" />
    <glyph glyph-name="x" unicode="x" horiz-adv-x="481" 
d="M106 256q-8 8 -18 8q-24 0 -171 -121.5t-196 -171.5q-12 -12 -20 -12q-7 0 -13.5 7.5t-6.5 15.5q2 8 14 20q57 46 171 140.5t171 140.5q14 11 14 12.5t-12 13.5q-33 33 -49 53q-7 15 -4 25q2 10 12 16q10 5 12 5q15 0 23 -21q11 -19 28 -40.5t23 -22.5q6 -2 43 24l18 12
q22 18 33 25q18 18 35 18q14 0 20 -16q6 -12 0.5 -21t-12.5 -12l-12 -8t-14 -8q-7 -4 -19.5 -10.5t-22 -12.5t-16.5 -12q-3 -2 -6.5 -4.5t-5 -3.5t-3 -2.5t0 -3t5 -3.5t9.5 -5q26 -13 51 -13q21 0 50 11q5 2 124 57q88 43 119 55q4 2 11 2q13 0 13.5 -13.5t-7.5 -17.5
q-3 -3 -91.5 -47.5t-103.5 -50.5q-68 -33 -106 -33q-48 0 -91 25z" />
    <glyph glyph-name="y" unicode="y" horiz-adv-x="487" 
d="M-578 -350q4 -10 20.5 -17.5t29.5 -7.5q24 0 67 17q60 22 132 75t137 119t118.5 130.5t93.5 121.5l15 23q4 6 -27 -13q-17 -10 -60 -37l-36 -22q-113 -68 -270 -164q-104 -66 -179 -141q-24 -27 -36 -51q-10 -23 -5 -33zM496 365q-20 -10 -62 -33t-63 -33
q-22 -13 -68.5 -35.5t-69.5 -34.5q-19 -10 -114 -65q-17 -10 -27 -27q-136 -217 -348 -407q-107 -96 -240 -136q-24 -4 -34 -4q-27 0 -51.5 12.5t-32.5 35.5q-9 24 4 53q22 49 88 105.5t131 97.5q84 51 224 133t196 116q55 29 80 82q3 6 47 86q19 33 24 45q8 15 -91 -32
l-3 -2q-7 -3 -33.5 -14.5t-40.5 -16.5q-12 -4 -16 -4q-13 0 -21 8q-12 12 -6 37q23 71 47 86q1 0 4 1t5 1t10 -4q8 -3 8 -10q3 -13 -8 -27q-5 -8 -13.5 -23t-11.5 -20q0 -10 2 -10q4 0 6 2q11 5 32.5 15t27.5 13q10 6 32 16t27 13q4 4 34.5 16.5t43.5 12.5q6 0 10 -4
q6 -6 2 -31q-5 -23 -37 -74q-7 -13 -23.5 -40.5t-23.5 -41.5q-3 -8 -2 -8q5 0 9 2q24 13 73.5 40t73.5 40q7 3 41.5 22.5t63.5 35t60.5 29t43.5 13.5q4 0 6 -2q6 -6 2 -14q-2 -8 -18 -16z" />
    <glyph glyph-name="z" unicode="z" horiz-adv-x="438" 
d="M442 397q1 0 3.5 1t3.5 1q7 0 12.5 -4.5t5.5 -11.5q0 -3 -1.5 -6.5t-3.5 -5.5t-5.5 -4.5t-5.5 -3.5l-6 -3t-5 -2q-9 -4 -64.5 -28.5t-84.5 -38.5q-22 -9 -62 -27t-53 -24q-10 -4 -37 -15.5t-46.5 -18t-37.5 -11.5q-25 -5 -28 -5q-17 3 -24 16t-1 27q12 27 55 70
q47 52 97 103q20 20 28 30q14 14 11 17q-1 1 -4.5 0t-7.5 -2.5t-5 -1.5q-79 -37 -127 -66q-3 -2 -13 -8.5t-17.5 -10t-14.5 -4.5q-23 0 -29 17q-5 10 0.5 24.5t16.5 14.5h6l8 -4q2 -2 8 -2q5 0 50 23t57 30q3 1 20 10t30.5 14t25.5 5q16 0 28 -15q18 -23 -16 -67
q-23 -27 -69 -72t-58 -57q-8 -6 -23 -25q-1 -2 -4 -6t-4 -6q-7 -11 2 -11q15 0 33 9q20 9 62.5 27.5t62.5 27.5q20 8 58.5 25.5t58.5 25.5q12 5 35 16t42.5 19.5t36.5 13.5z" />
    <glyph glyph-name="braceleft" unicode="{" horiz-adv-x="673" 
d="M59 225q62 46 124 117t94 117t94 139q74 121 141 209q20 27 63 65l11 9q13 13 41 20q25 0 37 -6q10 -3 10 -12q2 -9 -2 -21q-9 -12 -27 -12q-4 2 -14 2q-16 0 -37 -21l-4 -2q-44 -39 -60 -63q-92 -126 -180 -260q-117 -174 -241 -289q-9 -9 -9 -12.5t9 -14.5
q29 -40 20 -98q-3 -16 -10 -45.5t-10 -44.5l-5 -12q-2 -9 -7 -28t-7 -28q-2 -5 -5 -16t-5 -16q0 -11 -2 -17q0 -24 2 -26q2 -1 11.5 2.5t12.5 3.5q0 2 2 2q6 5 9 2h4q16 -4 18 -10q3 -4 1.5 -13t-5.5 -12q-27 -18 -47 -18q-8 0 -10 2q-24 3 -31 24q-1 5 -3 13.5t-3 13.5
q0 2 -1 5.5t-1 4.5v2l6 27q5 23 16 61q3 17 9 31q9 23 12 53q6 20 6 64q0 36 -25 55q-18 15 -18 29q3 14 16 24z" />
    <glyph glyph-name="braceright" unicode="}" horiz-adv-x="651" 
d="M59 -176q-9 0 -14 8q-14 21 6 37q8 4 12 4q42 17 86 62t81 104.5t63.5 110t48.5 100.5q5 14 16 33q67 175 168 239q0 1 -1 3t-1 3q-37 41 -39 74q0 69 41 162q9 27 15 37l6 18q11 27 16 45l2 15q-2 4 -16 4q-31 0 -33 26q0 22 31 29q29 0 41 -12q20 -17 20 -56
q0 -1 -1 -3.5t-1 -4.5q-4 -16 -10 -31q-3 -7 -9 -22.5t-9 -22.5q-37 -70 -52 -139q-15 -46 23 -84q0 -1 2.5 -3.5t3.5 -4.5q6 -9 18 -18q10 -17 7 -27q-4 -13 -17 -18q-23 -8 -43.5 -22t-38.5 -36.5t-29.5 -38t-28 -48.5t-21.5 -44t-21 -47q-125 -278 -275 -403
q-31 -31 -43 -31q-2 0 -4 2z" />
    <glyph glyph-name="copyright" unicode="&#xa9;" horiz-adv-x="819" 
d="M504 666q13 7 18 22t0 31q-11 29 -37 29q-4 0 -10 -3q-61 -12 -120 -86t-94 -154.5t-48 -144.5q-5 -24 -2 -61q3 -23 14 -31q9 -6 21 -6q2 0 6.5 1t7.5 1q34 10 57 25q72 51 115 88q9 10 28.5 29.5t28.5 29.5q48 48 58 56q64 61 118.5 149.5t65.5 165.5q8 32 4 78
q-4 49 -39.5 75.5t-85.5 26.5q-54 0 -127 -31q-87 -41 -163.5 -127t-128 -188.5t-83 -210.5t-36.5 -203q4 -20 4 -28q3 -27 4.5 -41t8.5 -39.5t16 -38.5t27 -24t42 -11q86 0 188.5 100t147.5 193l2 6q2 4 2 6q0 4 4 8q9 15 21 15q2 0 10 -4q12 -3 12 -15q3 -9 -4 -20
q-5 -7 -14.5 -20.5t-14.5 -20.5q-28 -43 -51 -74.5t-59 -73.5t-69 -70t-75 -49.5t-84 -25.5q-76 0 -107 46t-40 130q-8 86 25 217q19 77 50.5 156t80.5 162t106.5 148.5t133.5 111.5t157 55q4 0 11 1t11 1q45 0 84 -22q82 -49 76 -164q-12 -159 -155 -346l-13 -15
q-16 -27 -45 -35q-2 0 -16 -14l-2 -4q-126 -136 -217 -186q-7 -3 -21.5 -9.5t-21.5 -9.5q-18 -6 -37 -6q-30 0 -49 16q-32 25 -29 82q4 43 10 58q12 47 35 105t55 118t75 108.5t87 67.5q24 14 55 14q32 0 54 -22q44 -38 18 -107q-8 -20 -33 -49q-4 -8 -20 -8q-6 0 -8 2
q-20 4 -17 29q4 27 21 35z" />
    <glyph glyph-name="registered" unicode="&#xae;" horiz-adv-x="866" 
d="M823 961v-17q2 -75 -37 -203q-68 -193 -168 -321q-9 -12 -29 -32.5t-24 -25.5q-11 -6 -18 -16q-45 -31 -80 -31q-50 0 -80 47l-31 62q-3 5 -9 16.5t-9 16.5q-7 14 -16 26q-3 6 -5 6l-4 -4q-3 -5 -9 -13t-9 -13q-38 -78 -41 -86q-14 -24 -21 -41l-2 -4q-11 -21 -12 -23
q-6 -9 -16 -12q-7 0 -15 4q-8 8 -12 27q0 10 8 22l2 4q9 21 28 62t28 61l2 2q7 17 0 25q-9 12 -4 22q3 16 20 19q14 4 24 13.5t14.5 17t12.5 24.5l2 4q61 129 107 221l35 76q0 2 2 4l2 4q8 14 20 17h6q11 0 13 -2q7 -5 12 -19q3 -11 -6 -24q-33 -35 -62 -99
q-4 -10 -15 -29.5t-15 -27.5q106 110 206 127q8 2 21 2q33 0 47 -23q20 -33 -4 -71q-55 -79 -121.5 -123t-177.5 -90q-9 -3 -25 -11q-6 0 -6 -4q5 -11 15 -29.5t14 -25.5q16 -42 47 -88q17 -20 37 -20q26 0 60.5 26t49.5 51q207 266 207 519q1 6 -4 36q-12 54 -48.5 87.5
t-90.5 33.5q-29 0 -53 -8q-62 -17 -135 -80q-150 -136 -265.5 -385.5t-115.5 -441.5q0 -37 7.5 -71t31.5 -62.5t61 -28.5q58 0 129.5 64t120.5 133v2q20 24 24 28q8 8 17 8q10 0 16 -6q17 -17 2 -34q-5 -5 -30 -35q-158 -192 -269 -199q-71 0 -105 52t-34 128q-6 109 31 236
q95 342 299 586q136 159 276 159q69 -1 119 -50t55 -118q0 -6 1 -17.5t1 -16.5zM367 575h4q46 18 103.5 49t116 82t58.5 93q-12 6 -14 6q-2 -1 -23 -8q-8 -4 -25.5 -11.5t-25.5 -11.5q-100 -58 -194 -194v-5z" />
    <glyph glyph-name="macron" unicode="&#xaf;" horiz-adv-x="548" 
d="M68 999q-19 2 -25 19q-2 7 -0.5 13t3.5 12l3 6q9 11 25 18q8 8 18 8q1 0 4 -1t4 -1q11 -4 17 -18q4 -13 18 -13q113 5 135 5q21 1 58.5 1.5t69 1.5t59.5 3h14q8 4 14 4q20 0 23 -19q3 -9 -2.5 -16.5t-16.5 -9.5q-18 -2 -55 -2h-72q-50 0 -77 -4l-54 -2q-138 -5 -163 -5z
" />
    <glyph glyph-name="divide" unicode="&#xf7;" horiz-adv-x="714" 
d="M57 537l-5 3q-4 3 -7.5 7t-3.5 8q0 7 16 20q3 3 13 3h4q14 1 41 3t41 3q238 30 385 30q39 0 59 -2q11 0 29 -4t20 -4q22 -6 25 -26v-3q0 -17 -12 -26q-2 -2 -11 -2q-6 0 -10 2q-53 22 -129 22q-35 0 -53 -2q-189 0 -379 -30l-4 -2q-2 0 -5 -1t-5 -1q-5 0 -9 2zM346 731
q0 2 -2 4v2q9 59 31 99q4 8 8 10q12 12 25 12q10 0 16 -6q8 -11 8 -18q0 -11 -12 -23q-1 -1 -2.5 -2t-2.5 -2t-1 -2q2 0 6 -4q15 -10 18 -27q0 -25 -43 -57q-12 -12 -24 -12q-9 0 -15 6q-6 4 -10 20zM330 473q1 -1 4 -2t4 -2q18 -8 18 -31q-3 -23 -28.5 -46t-48.5 -25
q-17 0 -25 8q-8 11 -8 24q4 23 22 52.5t37 29.5q9 0 25 -8z" />
    <glyph glyph-name="udieresis" unicode="&#xfc;" horiz-adv-x="489" 
d="M487 354h-4q-17 -3 -98 -24l-16 -4q-67 -21 -97 -27q-6 -2 -18 -2q-21 0 -29 8q-21 14 -24 43l-4 14q-5 0 -13 -8l-12 -10q-16 -13 -47.5 -39.5t-46.5 -40.5q-44 -37 -82 -61q-16 -13 -31 -13q-9 0 -20 7q-24 15 -15 49q42 113 95 190q11 21 30 21q11 0 13 -4q6 -6 6 -25
q-1 -4 -13 -22q-1 0 -2 -2q-1 -1 -1 -1.5t-1 -1.5q-63 -79 -86 -151q-2 -4 -2 -12q2 -2 4 -2q2 1 5 2t4 2q10 8 30 23.5t36.5 29t31.5 26.5q21 15 41 35q36 32 61 52q21 16 35 16q4 0 6 -2q17 -8 17 -49v-13q0 -20 12 -20q8 0 14 2q42 9 56 14q7 2 23 7.5t26 7.5
q34 10 82 20q4 1 12 2t12 2q6 2 19 2q16 0 16 -18q0 -15 -22 -22q-1 0 -1.5 -0.5t-1.5 -0.5zM315 1661v-10v-4q-3 -44 -36 -70q-7 -10 -21 -10q-6 0 -14 4q-20 13 -17 33q1 6 17 53h2q2 4 6 8t4 6q10 19 33 19q23 -7 26 -29zM119 1681q4 11 18 11q8 0 10 -2q26 -16 23 -54
q-3 -42 -49 -69q-6 -6 -15 -6q-6 0 -10 4q-12 6 -16 24q-3 37 26 74q5 10 13 18z" />
    <glyph glyph-name="minus" unicode="&#x2212;" horiz-adv-x="759" 
d="M664 618v-4q0 -13 -6.5 -21.5t-18.5 -8.5q-8 0 -12 2q-16 8 -29 8q-127 0 -319 -25q-13 -1 -40 -3t-40 -3q-19 0 -35 4q-16 6 -19 19q-4 15 2 26q13 17 23 17q15 0 23 -8q9 -9 18 -9q2 0 7 1t7 1h6q8 0 24 3t21 4q10 1 31 3t31 3q38 3 81.5 5t96.5 4t82 3h4q27 0 41 -4
q3 -1 14 -12l5 -5h2z" />
    <glyph glyph-name="radical" unicode="&#x221a;" horiz-adv-x="1058" 
d="M1004 1368q1 0 4 1t4 1q16 0 32 -16q18 -21 9 -45q-10 -23 -29 -23q-10 0 -17.5 7t-7.5 16q0 10 -2 10t-8 -4l-6 -2q-20 -11 -41 -29q-259 -209 -633 -801q-95 -143 -192 -303l-15 -22q-7 -10 -14 -33q-7 -20 -13.5 -24.5t-25.5 -4.5q-28 10 -14 47l16 45q61 192 96 301
q17 53 23 78q2 5 5 17.5t5 19.5q3 10 -6 17q-26 23 -14 67q17 42 30 64l7 10q10 20 26 20q1 0 4 -1t4 -1q25 -9 25 -35q0 -12 -2 -18q-5 -60 -8 -72l-40 -140t-30 -103q-4 -14 -13 -43.5t-13 -44.5l-11 -39q1 2 4 6t4 6q6 8 17.5 25.5t17.5 25.5q17 25 105 158
q130 198 213 321q158 232 319 404q18 19 38.5 38t48 42.5t36.5 31.5q25 19 62 25z" />
    <glyph glyph-name=".elm.15" horiz-adv-x="886" 
d="M317 498q13 29 39.5 83.5t34.5 71.5l27 54q0 2 2 4q1 2 3 7t3 7q9 12 25 12q8 0 12 -2q11 -6 13 -17t-5 -22q-4 -8 -8 -12q-1 -2 -4 -6t-4 -6q-41 -73 -97 -178q-2 -5 -2 -7h9q10 2 39 6.5t45 6.5l67 10q15 4 19 12q13 23 36.5 68t36.5 67l19 33l10 15q10 10 20 10
q9 0 13 -2q21 -10 10 -35q-1 -3 -4 -9.5t-4 -9.5q-7 -10 -28.5 -42.5t-31.5 -49.5l-20 -35q-4 -2 -8 -10l-2 -4q5 0 12.5 1t11.5 1l53 6q27 3 88 8.5t93 8.5h2q4 2 12 2q6 0 10 -2q12 0 17 -11v-4q-4 -12 -13 -18q-4 -2 -12 -2q-2 -2 -6 -2q-19 -8 -43 -8q-3 0 -10.5 1
t-10.5 1q-22 0 -34 -2q-24 -2 -72.5 -7.5t-71.5 -7.5l-35 -4q-16 -2 -28 -14q-7 -12 -62 -103l-14 -24l-2 -6h6h41h66h6l6 2q22 -4 26 -8q5 -5 5 -17q0 -20 -31 -20l-90 -2q-35 0 -51 2q-16 0 -19 -13q-128 -212 -182 -335l-2 -7q-4 -8 -6 -14q-5 -13 -19 -18h-4q-8 0 -12 4
q-16 13 0 35l6 8q5 8 16 24.5t15 24.5q13 22 37 66t36 67l43 78q5 10 17.5 32t17.5 33q6 12 6 15q-10 0 -12 -2q-11 0 -32 -1t-33 -1q-10 0 -31 -1t-31 -1q-13 0 -22 -15q-11 -30 -45 -96l-21 -45q0 -2 -4 -6q0 -2 -4 -10q-7 -11 -16 -11q-7 0 -11 2q-15 9 -8 27l4 4l2 4
q8 15 22.5 42t25.5 49t20 42q4 4 4 9h-4h-4q-58 -12 -66 -13l-22 -2q-3 0 -12 -1t-13 -1q-22 -3 -29 23q0 12 4 18q10 10 21 10q16 4 31 4q6 0 17.5 1t17.5 1q36 6 67 9q20 0 23 14q18 35 22 47q4 5 9 17l5 12l3 4h-5l-24 -6l-129 -29q-1 0 -2 -1t-2 -1q-30 0 -37 21
q-3 24 20 30q12 4 21 4q6 0 10 2q10 1 49 11q18 3 54 10t53 10q19 3 30 25zM330 332h41h18h29q11 0 16 10q6 10 17.5 32t17.5 32q5 9 15.5 26.5t15.5 26.5q0 4 2 6q-3 3 -6 0q-11 -1 -23.5 -3t-27 -5t-23.5 -4q-14 -2 -82 -17q-15 -3 -21 -12q-3 -6 -9 -18.5t-9 -18.5
q-4 -8 -12.5 -23.5t-12.5 -23.5l-2 -8h11h45z" />
    <glyph glyph-name=".elm.2" horiz-adv-x="360" 
d="M141 967q-9 0 -18 6q-15 15 -12 39v4q1 2 2 7t2 7q7 23 22 29q4 2 13 2q13 0 24 -8q16 -7 51 -29q12 -10 33 -18q1 -1 16 -11q2 -2 7 -4t8 -4q8 -3 12 -14q0 -6 -4 -12q-9 -9 -14 -9t-13 4q-10 5 -45 25t-45 25q-9 6 -14 6q-2 -2 -4 -2q11 -22 0 -33q-10 -10 -21 -10z
" />
    <glyph glyph-name=".elm.29" horiz-adv-x="323" 
d="M223 178l-53 -53q-4 -4 -2 -6q0 -2 4 -4q49 -35 31 -92q-14 -40 -53 -68q-20 -10 -33 -10q-12 0 -21 6q-26 14 -26 51v6q1 2 2 7t2 8v12q-2 -2 -11 -2h-8q-13 0 -18 8q-11 14 -4 27q4 10 20 26h2q10 10 21 10q41 7 74 60q6 8 18.5 22t15.5 17q2 2 6.5 6t6.5 6
q16 16 32 16q15 0 15 -8q5 -9 0 -28l-13 -13q-1 0 -4 -2t-4 -2zM162 47q0 4 -4 4q-4 8 -11 15q-4 2 -8 2q-5 -2 -8 -7q-15 -39 -20 -67q-3 -3 2 -8q4 -4 10 2q34 21 39 59z" />
    <glyph glyph-name=".elm.42" horiz-adv-x="325" 
d="M150 922q-15 0 -25 10q-16 13 -16 39q2 27 21 56.5t44 29.5q8 0 12 -2q19 -6 29 -29q10 -29 -8 -63q-22 -36 -53 -39zM174 997h-10q-10 -20 -10 -34q6 2 14 10q3 5 8 11.5t6 8.5z" />
    <glyph glyph-name=".elm.46" horiz-adv-x="542" 
d="M301 817v6l-4 2q-109 -30 -125 -55l-2.5 -2.5t0.5 -1.5q8 -2 19 -3.5t14 -2.5h12h10q8 2 23 2q24 0 33 22q2 3 6 9.5t6 9.5q3 9 8 14zM152 963q-24 0 -35 14t2 41q5 13 19 26t28 13q12 -4 18 -13q16 -19 -8 -36v-2l35 8q17 3 55 10.5t58 11.5q5 1 15 2t15 2q27 5 31 7
q31 3 55 12q4 2 13 2q10 0 16 -6q14 -14 2 -33l-8 -8q-6 -6 -6 -8q-8 -11 -90 -129l-2 -5q0 -2 6 -2l14 2q9 2 26.5 4.5t26.5 4.5q31 0 31 -23q2 -6 -6 -14q-5 -8 -23 -8h-55l-20 2q-25 0 -31 -25q-4 -7 -8 -25q-12 -29 -17 -45q-4 -19 -14 -24.5t-31 -5.5q-25 0 -39 2
q-5 0 -18 1t-19 1q-31 4 -41 10q-21 8 -28 29q-3 20 14 37q40 49 172 69q21 6 31 23q6 12 19.5 36.5t19.5 36.5q4 6 24 41q1 2 2 6t2 5h-12q-12 -3 -36.5 -8.5t-37.5 -8.5q-16 -3 -46 -9t-46 -9l-10 -4q-10 -1 -31.5 -4t-31.5 -4z" />
    <glyph glyph-name=".elm.59" horiz-adv-x="397" 
d="M162 137q-18 6 -15 33q10 26 11 29q18 32 59 67q2 0 4 2q8 4 10 8l2 3q33 77 35 112v4q0 9 2 13q3 24 29 24q8 0 18 -10q7 -11 7 -25l-2 -2v-2q0 -5 -5 -10q-42 -129 -106 -215l-2 -2q-8 -16 -19 -23q-18 -6 -20 -6h-8zM184 420q-19 -70 -53 -146q-3 -10 -22 -36
q-11 -11 -21 -11q-8 0 -14 6q-2 2 -5.5 7.5t-5.5 7.5q0 4 -2 6v2l2 6q19 68 48 92q4 3 7.5 7t6.5 8.5t5 8t4.5 10t3.5 9t3.5 10t3.5 9.5v8q0 6 2 8q0 13 11 17q2 2 6 2q6 0 8 -2q4 0 12 -17v-4v-8z" />
    <glyph glyph-name=".elm.60" horiz-adv-x="544" 
d="M154 481q-11 7 -13 11q-7 17 2 28q46 61 111 185q6 11 17 34t18 37t18 33t21 33q1 3 3 8t3 8q10 13 18 16h6q11 0 15 -2q20 -13 10 -36q-3 -10 -8 -15q-4 -4 -4 -8l-21 -35q-33 -54 -151 -252l-6 -12q-2 -6 -7 -16q-7 -10 -14 -15q0 -3 -6 -6l-2 -4l-4 4q-2 0 -6 4z
M289 547q-2 2 -2 6q0 6 4 8l26 55q31 61 93 187q5 9 15 27.5t15 27.5l2 2q6 21 27 21q6 0 10 -2q3 -1 5 -3t4.5 -5.5t3.5 -4.5q0 -2 4 -6v-4q-4 -8 -4 -10q-3 -3 -9 -15q-55 -82 -151 -282v-4q-4 -8 -6 -10q-4 -5 -15 -11q-10 0 -16 6q-1 0 -6 17zM199 741q-32 -58 -52 -100
q-6 -11 -15 -30.5t-11 -22.5t-6 -8.5t-6 -8.5l-3 -3q-2 -4 -4 -5l-4 -6l-4 6q0 1 -1.5 2.5t-2.5 3.5q-5 5 -8 11q-1 3 0.5 9.5t1.5 8.5q9 18 100 211q4 11 11 18q9 15 22 15q15 0 21 -6q18 -18 0 -41l-5 -7q-17 -20 -34 -47z" />
    <glyph glyph-name=".elm.63" horiz-adv-x="626" 
d="M63 217h5v-8v-8q4 -32 16 -37q8 -4 12 -4q9 0 29 8h2q8 4 10 6q3 2 9.5 6t9.5 6q83 62 143.5 148.5t126.5 212.5l4 12l6 12q0 2 -6 2h-8q-51 -8 -74 -20q-174 -76 -258 -252l-8.5 -25.5t-9.5 -33.5q-1 -4 -4.5 -12.5t-4.5 -12.5zM315 913q99 86 181 86q30 0 48 -16.5
t21 -46.5q3 -51 -2 -98q-8 -74 -59 -197q-2 -3 -5 -11.5t-5 -11.5l-5 -8q-2 -6 -2 -8t7 -2q14 -3 18 -10q10 -14 6 -25q-6 -12 -24 -12q-7 0 -15 8q-6 4 -10 0q-2 -2 -5.5 -8t-4.5 -8l-4 -8q-123 -247 -281 -381q-23 -20 -51 -31q-30 -6 -31 -6q-11 0 -31 8q-26 16 -34 51
q-6 43 4 86q35 127 160.5 236.5t250.5 109.5q1 0 4.5 -1t4.5 -1q3 0 6 6q23 58 35 94t24 89.5t12 99.5q0 55 -28 55q-1 0 -5 -1t-6 -1q-18 -2 -40 -10q-76 -39 -105 -78q-10 -10 -22 -10q-9 0 -13 2q-20 13 -10 37q6 12 16 22z" />
    <glyph glyph-name=".elm" horiz-adv-x="886" 
d="M299 664q-25 4 -25 26q0 10 7 17.5t18 7.5h43h20h15v2h26h54q16 0 24 14l54 111q7 20 22 49l4 8q0 2 6 14q10 13 23 13q8 0 12 -2q19 -10 12 -31q-3 -14 -10 -25q-8 -16 -23.5 -41.5t-19.5 -33.5l-26 -50q-2 -3 -6.5 -10t-6.5 -10v-4q0 -2 4 -2h11h8q117 -12 235 -12
q5 0 47 6q2 0 6 1t5 1q13 0 22 -15q0 -28 -20 -32q-28 -4 -45 -4l-105 6q-14 1 -43.5 2t-44.5 2h-39h-45q-13 0 -19 -3t-12 -14q-12 -28 -35.5 -80t-27.5 -61l-18 -39l-5 -10q-7 -20 -15.5 -30.5t-27.5 -14.5q-6 0 -12 6t-8 12q-6 15 12 29q13 10 19 25q25 53 75 170
q5 8 5 10h-5h-6q-38 -3 -78 -6h-34l-7 -2h-20zM12 362q10 10 35 13q114 6 225 18q30 3 99.5 9.5t107.5 9.5l96 10v-4h25h72q21 0 41 -10q10 -3 14 -15q3 -12 -2 -20q-7 -15 -16 -15q-2 -2 -7 -2q-6 0 -14 4q-23 13 -53 13q-213 0 -553 -37l-31 -4q-4 -2 -16 -2q-20 0 -25 16
q0 12 2 16z" />
    <glyph glyph-name=".elm.1" horiz-adv-x="999" 
d="M242 55q-4 -12 -4 -20h14h6q59 12 121 63q125 103 246 288t197.5 390t76.5 357q0 26 -2 38q-9 94 -53 144q-14 14 -15 14q-3 0 -8 -16q-57 -134 -114 -242q-210 -424 -465 -1016zM768 1323q15 31 10 39q-6 6 -39 6q-86 0 -157.5 -57.5t-122.5 -143.5q-9 -22 -10 -28
q-3 -6 -3 -9q0 6 7 9q6 10 24 28t68 64q12 6 18 6q13 0 23 -10q12 -21 -13 -43q-2 -2 -5.5 -4.5t-4.5 -3.5q-19 -11 -37 -29q-262 -284 -379 -680q-40 -134 -34 -274q0 -63 30 -107q8 -10 29 -31q8 -4 10 -8l4 -2q4 0 4 4q1 2 3.5 6t3.5 6v2q137 311 471 1047q28 57 100 213
zM395 1092q0 64 54 135.5t120 124.5q65 51 166 57h2q2 0 6.5 -1t6.5 -1q4 0 14.5 -2t15.5 -2l2 -2q6 -2 13 -2q8 0 16 18q11 22 14 25q13 26 33 26q14 0 19 -8q15 -15 2 -35q-3 -6 -10.5 -18t-10.5 -18l-6 -11q-7 -7 0 -14q53 -47 70.5 -106.5t19.5 -135.5q3 -123 -43 -262
q-37 -107 -86.5 -215t-112 -217.5t-141 -207.5t-160.5 -165q-80 -57 -137 -67h-4h-10q-25 0 -34 -5.5t-15 -27.5q-1 -3 -23 -53q-1 -2 -4 -9t-4 -12l-2 -4q-1 -3 -3 -8t-3 -8q-11 -11 -19 -11q-9 0 -12 5q-11 11 -8 22q0 3 6 21q4 4 4 8l10 24q16 36 25 62q6 9 -2 14
q-90 55 -96 184q-6 140 38 295q91 311 275 564q14 17 14 43z" />
    <glyph glyph-name=".elm.3" horiz-adv-x="393" 
d="M41 819q-11 2 -14 13t6 20q77 62 119 104l22 21q8 9 31 27q8 4 14 4q10 0 19 -9q13 -13 -2 -30l-5 -4q-7 -9 5 -43q22 -53 40 -103q3 -4 7 -10q3 -12 -5 -21.5t-20 -7.5q-11 4 -14 13q-4 10 -12.5 30.5t-12.5 30.5l-26 59q0 3 -1 6l-2 3l-8 -4q-81 -64 -112 -87
q-3 -3 -13 -8q-6 -4 -16 -4z" />
    <glyph glyph-name=".elm.4" horiz-adv-x="972" 
d="M911 2560q9 -1 15 -9.5t4 -17.5q-3 -19 -23 -22h-14h-4q-6 0 -227 10h-29l-78 -2q-100 -4 -330 -12q-17 0 -22 -10q-6 -15 -23 -15q-10 0 -14 2q-1 0 -3 1t-3 1q-24 8 -31 25q-3 10 2 18q7 10 19 13q14 4 40 4q94 0 185 6q154 10 364 10h144h4q16 0 24 -2z" />
    </font>
</defs>
</svg>
